<svg width="42" height="42" viewBox="0 0 42 42" fill="none" xmlns="http://www.w3.org/2000/svg">
<g clip-path="url(#clip0_48_36)">
<path fill-rule="evenodd" clip-rule="evenodd" d="M12.3706 0.153832C10.7269 0.596072 9.40156 1.98139 9.06288 3.61122C8.99738 3.92652 8.96782 4.87419 8.98555 6.09028C9.01718 8.24888 9.02975 8.29904 9.66047 8.7695C10.0238 9.04055 10.914 9.04055 11.2774 8.7695C11.9077 8.29932 11.919 8.25423 11.9704 6.00955C12.0218 3.76488 12.0331 3.71979 12.6634 3.24961C12.9201 3.05807 13.0031 3.056 21.4553 3.03135L29.988 3.0065V5.51959C29.988 8.29557 30.0444 8.70209 30.5652 9.67808C30.9156 10.3349 31.7464 11.1492 32.4079 11.4841C33.3388 11.9554 33.7611 12.0098 36.4838 12.0098H38.9988L38.9743 25.0349C38.95 38.025 38.9494 38.0606 38.7564 38.3188C38.65 38.4612 38.4464 38.6646 38.3038 38.771C38.0472 38.9625 37.9572 38.9648 28.4866 39.0112C19.0159 39.0576 18.9259 39.0598 18.6693 39.2514C18.1768 39.6187 18.0232 39.9183 18.0232 40.5112C18.0232 41.1041 18.1768 41.4038 18.6693 41.7711C18.9264 41.963 18.9994 41.9646 28.423 41.9895C35.0037 42.0067 38.0692 41.9831 38.4116 41.9122C39.6301 41.66 40.9214 40.6823 41.4735 39.5937C42.0261 38.5042 41.9998 39.2765 41.9998 24.1375C41.9998 14.6958 41.9684 10.1561 41.9016 9.97678C41.7706 9.62473 32.469 0.310215 32.079 0.140613C31.6291 -0.0550532 13.1008 -0.0426777 12.3706 0.153832ZM35.6431 8.99076C34.197 9.02442 33.9285 8.98195 33.544 8.65878C33.0677 8.25845 32.991 7.9529 32.991 6.45873V5.12057L34.9159 7.0417L36.8407 8.96282L35.6431 8.99076ZM17.3616 9.14011C16.7401 9.41378 16.3829 10.1317 16.5159 10.8399C16.5981 11.2778 17.0664 11.7959 17.4923 11.9202C17.7196 11.9865 19.2195 12.0107 21.9343 11.9917C25.9044 11.9639 26.0412 11.9569 26.2922 11.7696C26.7846 11.4022 26.9382 11.1027 26.9382 10.5098C26.9382 9.91687 26.7846 9.61732 26.2922 9.2499C26.0407 9.0622 25.9115 9.05592 21.8405 9.0353C18.4979 9.01842 17.5898 9.03961 17.3616 9.14011ZM7.32521 12.1418C5.4555 12.5044 3.88787 13.3479 2.57568 14.6973C1.35921 15.9484 0.59909 17.3152 0.172672 19.0192C-0.0783554 20.0218 -0.0513289 22.1442 0.225411 23.1666C0.628837 24.6573 1.41336 26.0841 2.42197 27.1613L2.96156 27.7376V34.2743C2.96156 41.5114 2.9365 41.2056 3.56909 41.6877C3.93189 41.9642 4.33663 42.0555 4.81165 41.968C5.11411 41.9123 5.44875 41.6226 7.06714 40.0146L8.96744 38.1265L10.8677 40.0146C12.4861 41.6226 12.8208 41.9123 13.1232 41.968C13.5983 42.0555 14.003 41.9642 14.3658 41.6877C14.9984 41.2056 14.9733 41.5114 14.9733 34.2743V27.7376L15.5129 27.1613C17.8004 24.7182 18.5469 21.2499 17.4676 18.0793C17.0102 16.7355 16.4079 15.7884 15.3018 14.6735C14.0282 13.3896 12.8761 12.7268 11.0789 12.2436C10.302 12.0347 8.17457 11.977 7.32521 12.1418ZM10.2223 15.1498C12.9396 15.7249 14.97 18.2313 14.97 21.0103C14.97 24.2729 12.2331 27.0073 8.96744 27.0073C6.74245 27.0073 4.57602 25.6698 3.62643 23.7099C2.74507 21.8906 2.74507 20.13 3.62643 18.3107C4.78453 15.9203 7.56573 14.5874 10.2223 15.1498ZM21.866 16.6409C21.2448 16.9135 20.8872 17.6318 21.0203 18.3403C21.1026 18.7784 21.571 19.2965 21.9967 19.42C22.2285 19.4873 24.4019 19.5106 28.6909 19.4916C34.9366 19.4638 35.0461 19.4601 35.3009 19.27C35.7934 18.9027 35.947 18.603 35.947 18.0101C35.947 17.4172 35.7934 17.1176 35.3009 16.7503C35.0458 16.5599 34.9435 16.5567 28.597 16.5361C23.3824 16.5194 22.0976 16.5393 21.866 16.6409ZM21.866 24.1413C21.2448 24.4139 20.8872 25.1322 21.0203 25.8406C21.1026 26.2787 21.571 26.7968 21.9967 26.9204C22.2285 26.9877 24.4019 27.011 28.6909 26.9919C34.9366 26.9642 35.0461 26.9605 35.3009 26.7704C35.7934 26.403 35.947 26.1034 35.947 25.5105C35.947 24.9176 35.7934 24.618 35.3009 24.2506C35.0458 24.0602 34.9435 24.057 28.597 24.0365C23.3824 24.0197 22.0976 24.0397 21.866 24.1413ZM6.84033 29.7473C7.46222 29.9138 7.8633 29.9525 8.96744 29.9525C10.0716 29.9525 10.4727 29.9138 11.0946 29.7473C11.516 29.6343 11.8856 29.542 11.9157 29.542C11.9457 29.542 11.9704 31.1957 11.9704 33.217V36.8921L10.8208 35.7569C9.88803 34.8357 9.60491 34.6093 9.31935 34.556C8.57096 34.4159 8.35043 34.5361 7.11407 35.7569L5.9645 36.8921V33.217C5.9645 31.1957 5.98918 29.542 6.01921 29.542C6.04934 29.542 6.41888 29.6343 6.84033 29.7473ZM18.8631 31.6419C18.242 31.9139 17.8843 32.6326 18.0174 33.341C18.0997 33.7792 18.5681 34.2972 18.9938 34.4206C19.2271 34.4883 21.8503 34.5111 27.1894 34.4921C34.9519 34.4644 35.0448 34.4618 35.3009 34.2707C35.7934 33.9034 35.947 33.6038 35.947 33.0109C35.947 32.418 35.7934 32.1183 35.3009 31.751C35.0445 31.5597 34.9587 31.5575 27.0955 31.5371C20.6327 31.5204 19.0959 31.5399 18.8631 31.6419Z" fill="#00BBFC"/>
</g>
<defs>
<clipPath id="clip0_48_36">
<rect width="42" height="42" fill="white"/>
</clipPath>
</defs>
</svg>
