<svg width="42" height="42" viewBox="0 0 42 42" fill="none" xmlns="http://www.w3.org/2000/svg">
<path fill-rule="evenodd" clip-rule="evenodd" d="M18.9903 0.115409C12.693 0.872468 7.37204 5.30148 5.63562 11.2316C5.13954 12.9257 5.04977 13.61 5.05404 15.6665C5.05748 17.3563 5.07724 17.6035 5.28718 18.5798C5.41329 19.1666 5.64734 20.0344 5.80728 20.5084C6.33685 22.0773 7.4701 24.1223 8.45128 25.2796C8.62881 25.489 8.77402 25.6963 8.77402 25.7404C8.77402 25.7845 7.5453 27.8842 6.0436 30.4066C4.54189 32.9289 3.24183 35.1297 3.15458 35.2973C2.83067 35.9195 3.03382 36.7851 3.59572 37.1772C4.12964 37.5498 4.52933 37.4994 7.18087 36.7249C8.4924 36.3419 9.57113 36.0356 9.578 36.0442C9.58495 36.0528 9.99142 37.1997 10.4812 38.5928C10.971 39.9858 11.4314 41.2247 11.5044 41.3457C11.8133 41.8582 12.6178 42.1334 13.2293 41.9356C13.3877 41.8843 13.6326 41.7231 13.7734 41.5772C13.9141 41.4314 14.8508 39.9088 15.8549 38.1936C17.446 35.4755 17.685 35.0216 17.7164 34.6586C17.7896 33.8134 17.1467 33.1231 16.2865 33.1231C15.7629 33.1231 15.389 33.2939 15.1125 33.6594C15.0015 33.8061 14.5061 34.6186 14.0116 35.4649C13.517 36.3112 13.1019 37.0036 13.089 37.0036C13.0761 37.0036 12.7908 36.2237 12.4551 35.2705C11.8298 33.4951 11.6522 33.1693 11.1775 32.9287C10.7663 32.7203 10.2375 32.7765 8.91545 33.1689C7.92196 33.4639 7.68557 33.5105 7.72735 33.4034C7.78639 33.2518 10.8511 28.0744 10.9779 27.9121C11.043 27.8287 11.0967 27.8397 11.236 27.9647C11.3327 28.0516 11.7698 28.3521 12.2073 28.6326C16.9508 31.673 22.98 32.0152 28.0417 29.5311C28.6915 29.2122 29.9883 28.4113 30.7879 27.8351C30.911 27.7464 31.1165 28.0535 32.5736 30.5023C33.4793 32.0244 34.2437 33.3298 34.2725 33.4034C34.3144 33.5105 34.0778 33.4638 33.0846 33.1689C31.7625 32.7765 31.2338 32.7203 30.8225 32.9287C30.3479 33.1693 30.1702 33.4951 29.5449 35.2705C29.2092 36.2237 28.9241 37.0036 28.9112 37.0036C28.8984 37.0036 28.4109 36.1921 27.8279 35.2001C27.2448 34.2083 26.671 33.3221 26.5526 33.2309C26.0693 32.8582 25.3492 32.8363 24.8311 33.1785C24.3839 33.4738 24.1821 33.8447 24.1821 34.371C24.1821 34.8228 24.2228 34.9023 26.0761 38.0724C27.1177 39.8542 28.0854 41.4314 28.2263 41.5772C28.3673 41.7231 28.6123 41.8843 28.7707 41.9356C29.3822 42.1334 30.1867 41.8582 30.4956 41.3457C30.5686 41.2247 31.029 39.9858 31.5188 38.5928C32.0086 37.1997 32.416 36.0518 32.4241 36.0421C32.4323 36.0323 33.511 36.3386 34.8213 36.7228C37.4707 37.4995 37.8699 37.5501 38.4043 37.1772C38.9666 36.7848 39.1694 35.9195 38.845 35.2964C38.7575 35.1284 37.4386 32.896 35.9142 30.3356C34.3896 27.7752 33.1423 25.6586 33.1423 25.6322C33.1423 25.6057 33.3067 25.3745 33.5076 25.1184C38.0751 19.2965 37.9191 11.24 33.1299 5.61342C29.6664 1.54434 24.3381 -0.527495 18.9903 0.115409ZM23.7634 3.21849C27.6378 4.12392 30.913 6.66714 32.5545 10.045C34.9693 15.0137 33.9909 20.6705 30.0485 24.5341C25.6302 28.8642 18.8973 29.5075 13.6969 26.0966C8.36729 22.6009 6.47008 15.8088 9.23643 10.127C11.1074 6.28406 14.8139 3.65393 19.2834 2.99781C19.4215 2.97754 20.2882 2.97262 21.2094 2.98698C22.6465 3.0093 23.0089 3.04221 23.7634 3.21849ZM20.4444 6.22251C19.8187 6.37474 19.6968 6.54511 18.526 8.90188C17.7789 10.406 17.3653 11.151 17.261 11.1805C17.1759 11.2046 16.1075 11.3764 14.887 11.5621C13.6665 11.7478 12.5478 11.937 12.401 11.9824C11.8136 12.1641 11.3732 12.7585 11.374 13.3686C11.3747 13.9439 11.6024 14.2184 13.4634 15.8876C14.5484 16.8606 15.2737 17.5716 15.2888 17.6765C15.3025 17.7723 15.1612 18.7954 14.9748 19.9502C14.7884 21.1048 14.6358 22.2235 14.6358 22.436C14.6358 23.2597 15.1955 23.791 16.0634 23.791C16.4818 23.791 16.6723 23.708 18.791 22.6025L21.0687 21.4139L23.3581 22.5193C25.2097 23.4133 25.7162 23.6249 26.0061 23.6258C26.8507 23.6284 27.5317 22.9943 27.5317 22.2053C27.5317 22.0612 27.3276 20.9281 27.0783 19.6871L26.6249 17.4309L28.456 15.6255C29.4631 14.6325 30.3266 13.716 30.3749 13.589C30.6358 12.902 30.1898 11.9478 29.5067 11.7313C29.3646 11.6863 28.1556 11.516 26.8199 11.353C25.4843 11.19 24.3675 11.0321 24.3383 11.0022C24.309 10.9722 23.7883 10.0245 23.181 8.89605C22.5738 7.76765 21.9948 6.75782 21.8944 6.65196C21.5362 6.27446 20.9476 6.10007 20.4444 6.22251ZM21.5366 12.0796C21.883 12.7247 22.253 13.3322 22.3589 13.4298C22.6808 13.726 23.0804 13.8357 24.3915 13.9872C25.0823 14.067 25.6646 14.1464 25.6853 14.1636C25.7061 14.1809 25.2663 14.6461 24.708 15.1974C23.3913 16.4979 23.4116 16.4343 23.7553 18.1825C23.898 18.9078 24.0147 19.5229 24.0147 19.5494C24.0147 19.5759 23.4399 19.3163 22.7376 18.9724C21.0088 18.1261 21.022 18.126 19.3648 19.0033C18.5552 19.4319 18.102 19.6303 18.0856 19.5631C18.0717 19.5059 18.1376 18.9928 18.2322 18.4228C18.4459 17.1345 18.4496 16.6844 18.2493 16.3625C18.1645 16.2263 17.6526 15.7098 17.1116 15.2149L16.1281 14.315L17.4991 14.0994C18.2531 13.9808 18.9883 13.8238 19.133 13.7505C19.4904 13.5694 19.6672 13.3047 20.293 12.0141C20.5883 11.405 20.8472 10.9067 20.8684 10.9067C20.8895 10.9067 21.1902 11.4345 21.5366 12.0796Z" fill="#00BBFC"/>
</svg>
