<svg width="42" height="42" viewBox="0 0 42 42" fill="none" xmlns="http://www.w3.org/2000/svg">
<g clip-path="url(#clip0_48_41)">
<path fill-rule="evenodd" clip-rule="evenodd" d="M6.02062 0.102841C5.65081 0.273958 5.44974 0.540605 5.15847 1.24633C4.42657 3.01971 3.01587 4.43033 1.24331 5.16125C0.515104 5.46155 0.197164 5.72204 0.0631432 6.12813C-0.153686 6.78502 0.200529 7.42525 0.932021 7.69895C2.93191 8.44719 4.33457 9.80669 5.21641 11.8512C5.54732 12.6184 5.76341 12.8517 6.23589 12.9516C6.94662 13.1019 7.44938 12.7135 7.85046 11.7044C8.51949 10.0209 10.0242 8.51695 11.7014 7.85538C12.1249 7.68837 12.4437 7.49739 12.6478 7.28868C12.9264 7.00357 12.9556 6.93192 12.9556 6.53142C12.9556 5.85368 12.7433 5.60115 11.8527 5.21944C10.047 4.44543 8.75495 3.23826 8.01435 1.63288C7.48442 0.484305 7.42492 0.380814 7.19948 0.214785C6.92233 0.0106761 6.33955 -0.0447214 6.02062 0.102841ZM31.0451 0.108094C30.6974 0.259514 30.4868 0.552259 30.2258 1.24682C29.8809 2.16461 29.1625 3.52584 28.6046 4.31847C27.9745 5.21378 26.3444 6.85511 25.4713 7.47342C24.7084 8.01369 23.1894 8.81971 22.328 9.14134C21.5971 9.41414 21.2772 9.67102 21.1535 10.0842C20.9265 10.842 21.2675 11.3523 22.2534 11.7303C24.7334 12.6809 26.8968 14.3087 28.4546 16.3961C29.06 17.2074 29.8216 18.6145 30.2701 19.7507C30.6601 20.7389 31.1612 21.0726 31.9157 20.8465C32.3284 20.7229 32.5851 20.4035 32.8601 19.672C33.2079 18.7467 33.9247 17.3875 34.4843 16.5924C35.1351 15.6677 36.7567 14.0461 37.6814 13.3953C38.4835 12.8308 39.8403 12.1166 40.7774 11.7658C41.7769 11.3916 42.1615 10.8385 41.9388 10.0953C41.8112 9.66938 41.4902 9.40569 40.7774 9.14093C37.1903 7.80901 34.2254 4.85127 32.8642 1.24682C32.5973 0.540195 32.389 0.256477 32.0257 0.104647C31.6891 -0.036022 31.3736 -0.034873 31.0451 0.108094ZM6.81818 4.40276C7.19152 4.89149 8.20705 5.89751 8.6655 6.23277L9.01249 6.48653L8.41929 6.96311C7.7624 7.49099 7.31897 7.94082 6.8181 8.58753L6.48497 9.01758L6.23047 8.6696C5.89144 8.20599 4.88616 7.1925 4.39341 6.81752L3.99734 6.51607L4.35238 6.22899C5.00541 5.70103 5.7914 4.91332 6.11279 4.46489C6.28776 4.22064 6.45108 4.019 6.4757 4.01686C6.50024 4.01473 6.65437 4.18839 6.81818 4.40276ZM31.9505 4.95411C33.1955 6.95154 35.3545 9.0939 37.1355 10.0991C37.3781 10.236 37.5955 10.3786 37.6185 10.4158C37.6415 10.4531 37.4332 10.6216 37.1555 10.7902C35.1098 12.033 33.1207 14.023 31.8759 16.0722C31.7052 16.353 31.5399 16.5521 31.5085 16.5146C31.477 16.4772 31.1701 16.0219 30.8265 15.5028C29.6394 13.7094 28.2832 12.3554 26.4561 11.1396C25.9144 10.7791 25.479 10.4662 25.4883 10.4441C25.4978 10.4221 25.941 10.1144 26.4732 9.76023C28.3932 8.48306 30.0346 6.77878 31.2131 4.83863C31.3793 4.56509 31.5273 4.34121 31.5419 4.34121C31.5565 4.34121 31.7404 4.61696 31.9505 4.95411ZM12.4881 15.9916C12.111 16.2216 12.0308 16.3776 11.5165 17.8828C10.999 19.3973 10.5354 20.4339 9.92798 21.4347C8.6536 23.5342 6.53922 25.4165 4.25324 26.4868C3.78084 26.7079 2.7589 27.0993 1.98219 27.3567C0.762628 27.7608 0.536524 27.8628 0.324373 28.1045C-0.121269 28.612 -0.0906564 29.3996 0.390357 29.8044C0.525691 29.9183 1.26358 30.2192 2.13287 30.5152C4.86015 31.4436 6.28275 32.2908 7.99236 34.0048C9.70163 35.7185 10.5631 37.1648 11.4841 39.8671C11.78 40.7351 12.0818 41.4745 12.1956 41.6096C12.6004 42.0907 13.388 42.1213 13.8955 41.6756C14.1372 41.4635 14.2391 41.2374 14.6432 40.0178C14.9006 39.2411 15.2921 38.2191 15.5132 37.7467C16.5835 35.4608 18.4657 33.3464 20.5653 32.072C21.5724 31.4606 22.6162 30.9961 24.0409 30.5252C24.7438 30.2929 25.4365 30.0311 25.5805 29.9437C26.2871 29.5139 26.3658 28.5819 25.7444 28.0017C25.6323 27.897 24.9285 27.6103 24.0747 27.3214C21.4207 26.4237 19.8018 25.4677 18.167 23.8329C16.5301 22.196 15.5628 20.5583 14.6787 17.9275C14.3868 17.0587 14.1084 16.3734 14.0004 16.2578C13.5844 15.8123 12.962 15.7027 12.4881 15.9916ZM14.4414 23.1924C15.931 25.4116 17.9119 27.1798 20.3418 28.4592L21.2355 28.9297L20.5656 29.2538C17.5402 30.7175 14.989 33.2711 13.4158 36.4102C13.2518 36.7375 13.1035 37.0052 13.0863 37.0052C13.0691 37.0052 12.8978 36.6881 12.7058 36.3005C12.2082 35.296 11.1979 33.8096 10.3965 32.9032C9.16941 31.5151 7.50823 30.2255 5.85049 29.3738C5.40977 29.1473 5.03307 28.946 5.01345 28.9263C4.99384 28.9067 5.28396 28.7366 5.6582 28.5485C8.74469 26.9967 11.2955 24.4343 12.745 21.4297L13.0681 20.7603L13.5397 21.656C13.7991 22.1487 14.2048 22.84 14.4414 23.1924ZM35.206 29.0516C34.8039 29.1366 34.4363 29.5692 34.1464 30.2986C33.4707 31.9987 32 33.4628 30.2498 34.1777C29.3361 34.5508 29.0413 34.867 29.0413 35.4736C29.0413 36.1491 29.2544 36.4022 30.1442 36.7836C32.1877 37.6595 33.5516 39.0653 34.3009 41.068C34.5747 41.7995 35.2149 42.1537 35.8718 41.9369C36.2779 41.8028 36.5383 41.4849 36.8386 40.7567C37.5726 38.9768 38.9737 37.5757 40.7536 36.8418C41.4818 36.5415 41.7997 36.281 41.9337 35.8749C42.1506 35.218 41.7963 34.5778 41.0648 34.3041C39.065 33.5558 37.6623 32.1963 36.7805 30.1518C36.5947 29.7211 36.3832 29.3656 36.2572 29.2722C35.9813 29.0679 35.5533 28.9781 35.206 29.0516ZM35.7657 33.3326C36.1022 33.7927 37.1077 34.8079 37.5971 35.1818C37.8116 35.3456 37.987 35.501 37.987 35.5272C37.987 35.5533 37.8785 35.6388 37.7458 35.7171C37.3578 35.9463 36.2506 37.0269 35.8942 37.5242C35.7136 37.7761 35.5458 37.984 35.5212 37.9861C35.4966 37.9883 35.3425 37.8147 35.1787 37.6003C34.8054 37.1115 33.7898 36.1055 33.3314 35.7702L32.9844 35.5165L33.5776 35.0443C34.198 34.5504 34.8678 33.8581 35.2555 33.3101C35.3811 33.1326 35.4899 32.9865 35.4972 32.9855C35.5046 32.9846 35.6255 33.1408 35.7657 33.3326Z" fill="#00BBFC"/>
</g>
<defs>
<clipPath id="clip0_48_41">
<rect width="42" height="42" fill="white"/>
</clipPath>
</defs>
</svg>
