<svg width="38" height="42" viewBox="0 0 38 42" fill="none" xmlns="http://www.w3.org/2000/svg">
<path fill-rule="evenodd" clip-rule="evenodd" d="M21.5263 0.127363C18.5109 0.648749 15.977 2.44547 14.6479 5.00502C13.2433 7.70951 13.2398 10.6716 14.6379 13.3603C15.1401 14.3261 15.6676 15.0069 16.5698 15.8535L17.3233 16.5607L16.665 16.8255C15.8926 17.1363 15.1137 17.5428 14.3666 18.0249C13.8386 18.3658 13.8251 18.3694 13.475 18.2661C13.2795 18.2083 12.5551 17.991 11.8651 17.783C11.175 17.5749 10.5372 17.4048 10.4477 17.4048C10.1019 17.4048 0.803673 20.3002 0.542811 20.4892C-0.0217948 20.898 0.000113627 20.6321 0.000113627 27.0762C0.000113627 31.8343 0.023041 33.0312 0.12494 33.5962C0.697698 36.7725 2.66291 39.1424 6.03483 40.7232C6.60012 40.9882 7.39366 41.308 7.79837 41.4339C8.20308 41.5599 8.64243 41.7388 8.77482 41.8315C9.01521 41.9998 9.0305 42 23.0981 42H37.1808L37.4153 41.8307C37.5443 41.7375 37.7286 41.5593 37.8249 41.4345C37.9984 41.2098 38 41.147 38 34.4593C38 27.0812 38.0089 27.2359 37.4832 25.4743C36.5156 22.2319 34.1812 19.3495 31.1046 17.5982C30.6747 17.3535 29.9965 17.0197 29.5973 16.8563C29.1981 16.6929 28.8742 16.5369 28.8774 16.5097C28.8806 16.4826 29.112 16.282 29.3916 16.0639C30.7762 14.9839 32.0095 12.8936 32.4525 10.8762C32.5922 10.2401 32.5922 8.14524 32.4525 7.50921C31.931 5.13419 30.5282 3.01088 28.6168 1.70351C26.5847 0.313531 23.9005 -0.283159 21.5263 0.127363ZM24.7119 2.81625C26.4794 3.28097 27.8259 4.21337 28.7958 5.64449C30.8243 8.63747 29.9146 12.7177 26.7772 14.6983C24.1345 16.3668 20.6016 16.016 18.3484 13.8614C16.9869 12.5594 16.3502 11.0718 16.3502 9.19269C16.3502 7.76231 16.6494 6.75206 17.4042 5.6339C18.4258 4.12041 20.0147 3.08971 21.866 2.73955C22.5891 2.60273 24.0495 2.64207 24.7119 2.81625ZM26.5788 18.6605C29.1769 19.2621 31.3503 20.5955 32.8977 22.5373C34.0498 23.983 34.5954 25.0756 35.0507 26.8487L35.2722 27.711L35.3033 33.5621L35.3345 39.4132H33.2934H31.2523L31.2296 33.2601C31.2071 27.191 31.2043 27.1039 31.0316 26.8803C30.6989 26.4493 30.4275 26.3149 29.8905 26.3149C29.3535 26.3149 29.0821 26.4493 28.7494 26.8803C28.5767 27.1039 28.574 27.191 28.5515 33.2601L28.5287 39.4132H23.0956H17.6626V39.2413C17.6626 39.1412 17.926 38.7953 18.293 38.4133C19.4367 37.2226 20.1893 35.9303 20.618 34.4207L20.8443 33.6237L20.8703 27.4646C20.8847 24.0771 20.8752 21.2231 20.8493 21.1222C20.8233 21.0215 20.6838 20.8088 20.5394 20.6497C20.3067 20.3934 20.108 20.3082 18.7998 19.9031C17.9876 19.6517 17.323 19.4328 17.323 19.4168C17.323 19.3464 18.7533 18.8634 19.4059 18.7135C20.645 18.4289 21.043 18.4004 23.3945 18.4275C25.4955 18.4518 25.7617 18.4713 26.5788 18.6605ZM14.3245 21.285L18.1691 22.4552L18.17 27.711C18.1708 32.6361 18.1606 33.0086 18.0058 33.633C17.9149 33.9995 17.7458 34.5065 17.6299 34.7598C16.7096 36.7724 14.3765 38.43 11.4296 39.1648C10.5139 39.3931 10.4685 39.3966 9.93426 39.2802C6.65701 38.5662 4.12473 36.7769 3.18166 34.5088C2.72931 33.4208 2.71148 33.1448 2.7367 27.5929L2.75988 22.4653L5.7744 21.5436C7.43238 21.0367 9.13282 20.5113 9.55315 20.3762C9.97349 20.2412 10.354 20.1271 10.3987 20.1227C10.4433 20.1184 12.21 20.6413 14.3245 21.285ZM14.7755 25.2183C14.5538 25.2812 13.8956 25.8636 12.1832 27.5119L9.88806 29.721L8.91442 28.7767C7.85203 27.7464 7.47102 27.5266 6.90233 27.6159C6.04417 27.7505 5.50334 28.741 5.89523 29.4601C5.96172 29.5821 6.75466 30.3902 7.65724 31.256C9.06056 32.6022 9.3457 32.8388 9.62499 32.8886C10.3517 33.0183 10.4415 32.9524 13.3634 30.146C14.8519 28.7164 16.1797 27.3824 16.3142 27.1816C17.008 26.1457 16.007 24.8684 14.7755 25.2183Z" fill="#00BBFC"/>
</svg>
