<svg width="17" height="17" viewBox="0 0 17 17" fill="none" xmlns="http://www.w3.org/2000/svg">
<path d="M16 8.5C16 10.4891 15.2098 12.3968 13.8033 13.8033C12.3968 15.2098 10.4891 16 8.5 16C6.51088 16 4.60322 15.2098 3.1967 13.8033C1.79018 12.3968 1 10.4891 1 8.5C1 6.51088 1.79018 4.60322 3.1967 3.1967C4.60322 1.79018 6.51088 1 8.5 1C10.4891 1 12.3968 1.79018 13.8033 3.1967C15.2098 4.60322 16 6.51088 16 8.5ZM14.6365 8.49872C14.6365 6.87132 13.99 5.31057 12.8392 4.15982C11.6885 3.00907 10.1277 2.36259 8.50032 2.36259C6.87292 2.36259 5.31217 3.00907 4.16142 4.15982C3.01067 5.31057 2.36419 6.87132 2.36419 8.49872C2.36419 10.1261 3.01067 11.6869 4.16142 12.8376C5.31217 13.9884 6.87292 14.6349 8.50032 14.6349C10.1277 14.6349 11.6885 13.9884 12.8392 12.8376C13.99 11.6869 14.6365 10.1261 14.6365 8.49872Z" fill="#00BBFC"/>
<path d="M5.53965 8.47031V5.53946H8.4705" stroke="#01B8FD" stroke-linecap="round" stroke-linejoin="round"/>
<path d="M8.60293 11.5336H11.5338V8.60274" stroke="#01B8FD" stroke-linecap="round" stroke-linejoin="round"/>
<path d="M5.67383 5.67188L11.2691 11.2671" stroke="#01B8FD" stroke-linecap="round" stroke-linejoin="round"/>
</svg>
