<svg width="17" height="17" viewBox="0 0 17 17" fill="none" xmlns="http://www.w3.org/2000/svg">
<path d="M16 8.5C16 10.4891 15.2098 12.3968 13.8033 13.8033C12.3968 15.2098 10.4891 16 8.5 16C6.51088 16 4.60322 15.2098 3.1967 13.8033C1.79018 12.3968 1 10.4891 1 8.5C1 6.51088 1.79018 4.60322 3.1967 3.1967C4.60322 1.79018 6.51088 1 8.5 1C10.4891 1 12.3968 1.79018 13.8033 3.1967C15.2098 4.60322 16 6.51088 16 8.5ZM14.6365 8.49872C14.6365 6.87132 13.99 5.31057 12.8392 4.15982C11.6885 3.00907 10.1277 2.36259 8.50032 2.36259C6.87292 2.36259 5.31217 3.00907 4.16142 4.15982C3.01067 5.31057 2.36419 6.87132 2.36419 8.49872C2.36419 10.1261 3.01067 11.6869 4.16142 12.8376C5.31217 13.9884 6.87292 14.6349 8.50032 14.6349C10.1277 14.6349 11.6885 13.9884 12.8392 12.8376C13.99 11.6869 14.6365 10.1261 14.6365 8.49872V8.49872Z" fill="#00BBFC"/>
<path d="M8.83252 4.0515C8.93802 4.10027 9.02086 4.16934 9.08104 4.25872C9.16021 4.36382 9.20017 4.48076 9.20092 4.60955C9.2075 5.78398 9.2075 6.97094 9.20092 8.17044C9.20092 8.18756 9.20666 8.20229 9.21813 8.21463C9.74769 8.78174 10.2773 9.34228 10.8071 9.89625C10.944 10.0396 11.008 10.2107 10.9992 10.4095C10.9879 10.5986 10.9109 10.751 10.7682 10.8666C10.6538 10.9624 10.5263 11.0066 10.3857 10.9992C10.2333 10.997 10.1082 10.9454 10.0102 10.8442C9.37327 10.1874 8.74771 9.52541 8.13352 8.85838C8.12694 8.85121 8.12092 8.84355 8.11547 8.83539C8.05191 8.74103 8.01467 8.64121 8.00376 8.53591C8.00263 8.52596 8.00207 8.516 8.00207 8.50605C8.00207 7.24205 8.00207 5.97805 8.00207 4.71406C8.00207 4.7041 8.00179 4.69415 8.00122 4.6842C7.99032 4.48952 8.05228 4.32092 8.18712 4.1784C8.26629 4.0948 8.36502 4.04006 8.4833 4.01418C8.60291 3.98671 8.71931 3.99915 8.83252 4.0515Z" fill="#00BBFC"/>
</svg>
