<svg width="35" height="15" viewBox="0 0 35 15" fill="none" xmlns="http://www.w3.org/2000/svg">
<path d="M0.897087 10.0146C1.24766 8.26172 2.78671 7 4.57426 7H7.54381C9.52521 7 11.4232 6.20243 12.8099 4.78711L16.0714 1.45814C16.8556 0.657705 18.1444 0.657704 18.9286 1.45814L21.9506 4.54263C23.4905 6.11431 25.5981 7 27.7984 7H27.9751C28.6547 7 29.3307 7.09922 29.9817 7.29451L31.558 7.7674C33.0608 8.21825 34.1923 9.46148 34.5 11V11V11C34.7639 12.8473 33.3305 14.5 31.4645 14.5H4.57426C2.20784 14.5 0.432993 12.335 0.897087 10.0146V10.0146Z" fill="white"/>
</svg>
