<?xml version="1.0" encoding="UTF-8"?>
<svg xmlns="http://www.w3.org/2000/svg" width="24" height="24" viewBox="0 0 24 24" fill="none">
  <path d="M14.2022 6.65439C14.2022 6.84448 14.1267 7.02678 13.9923 7.16119C13.8579 7.2956 13.6756 7.37111 13.4855 7.37111H1.60734C1.41726 7.37111 1.23496 7.2956 1.10055 7.16119C0.966136 7.02678 0.890625 6.84448 0.890625 6.65439V1.93596C0.890625 1.74587 0.966136 1.56357 1.10055 1.42916C1.23496 1.29475 1.41726 1.21924 1.60734 1.21924H13.4855C13.6756 1.21924 13.8579 1.29475 13.9923 1.42916C14.1267 1.56357 14.2022 1.74587 14.2022 1.93596V6.65439ZM12.7964 2.65455C12.7964 2.64672 12.7933 2.63921 12.7878 2.63367C12.7822 2.62813 12.7747 2.62502 12.7669 2.62502H2.32594C2.31811 2.62502 2.31059 2.62813 2.30506 2.63367C2.29952 2.63921 2.29641 2.64672 2.29641 2.65455V5.9358C2.29641 5.93968 2.29717 5.94352 2.29865 5.9471C2.30014 5.95069 2.30231 5.95394 2.30506 5.95668C2.3078 5.95942 2.31105 5.9616 2.31464 5.96308C2.31822 5.96457 2.32206 5.96533 2.32594 5.96533H12.7669C12.7708 5.96533 12.7746 5.96457 12.7782 5.96308C12.7818 5.9616 12.785 5.95942 12.7878 5.95668C12.7905 5.95394 12.7927 5.95069 12.7942 5.9471C12.7956 5.94352 12.7964 5.93968 12.7964 5.9358V2.65455Z" fill="#5D6078"></path>
  <path d="M19.5469 2.44928C20.4178 2.45396 21.2889 2.45396 22.1602 2.44928C22.2833 2.44521 22.3897 2.46381 22.4794 2.50506C22.6684 2.59193 22.7955 2.71881 22.8605 2.88568C22.8945 2.97568 22.9237 3.07146 22.9481 3.17303C23.2953 4.60615 23.6402 6.03303 23.9827 7.45365C23.9864 7.46896 23.9873 7.48443 23.9855 7.50006C23.9823 7.52287 23.9872 7.54334 24 7.56146C24 7.58896 24 7.61631 24 7.6435C23.9672 7.87318 23.8686 8.04709 23.7042 8.16521C23.5783 8.25521 23.4386 8.29912 23.2852 8.29693C22.7227 8.296 22.1481 8.296 21.5616 8.29693C21.5231 8.29693 21.5039 8.31615 21.5039 8.35459C21.5039 9.74584 21.5039 11.1468 21.5039 12.5574C21.5039 12.5858 21.5181 12.5997 21.5466 12.5991C21.8916 12.5847 22.1869 12.599 22.4325 12.6418C22.7206 12.6918 22.9784 12.8051 23.2059 12.9816C23.5569 13.2482 23.7903 13.5812 23.9062 13.9805C23.9491 14.1277 23.9803 14.3044 24 14.5107C24 16.6513 24 18.7919 24 20.9326C23.9937 20.9357 23.9898 20.9543 23.9883 20.9883C23.973 21.4293 23.8158 21.819 23.5167 22.1574C23.2161 22.5087 22.8381 22.7205 22.3828 22.793C22.2597 22.8127 22.1425 22.8237 22.0312 22.8258C22.0156 22.8274 22 22.8282 21.9844 22.8282C15.3397 22.831 8.68734 22.831 2.02734 22.8282C1.89953 22.8282 1.76672 22.8165 1.62891 22.793C1.29016 22.7408 0.988437 22.6051 0.72375 22.3857C0.515312 22.2132 0.349219 22.0082 0.225469 21.7707C0.0982812 21.5232 0.023125 21.2419 0 20.9269C0 18.7822 0 16.6377 0 14.4933C0.0065625 14.488 0.0104688 14.4655 0.0117188 14.4258C0.0214063 14.1224 0.108281 13.8343 0.272344 13.5615C0.396406 13.3402 0.570312 13.1469 0.794062 12.9816C1.02438 12.8113 1.28328 12.6966 1.57078 12.6376C1.58609 12.6344 1.60156 12.6321 1.61719 12.6305C1.95844 12.5974 2.37016 12.5869 2.85234 12.5991C2.88047 12.5997 2.89453 12.586 2.89453 12.5579C2.89516 12.3069 2.89516 12.0741 2.89453 11.8594C2.88641 11.5632 2.93719 11.278 3.04688 11.004C3.2 10.6162 3.44906 10.3027 3.79406 10.0637C4.16156 9.80771 4.57266 9.67975 5.02734 9.67975C9.67953 9.67818 14.3319 9.67818 18.9844 9.67975C19.3619 9.67975 19.7256 9.77787 20.0756 9.97412C20.0966 9.986 20.1067 9.9799 20.1061 9.95584C20.0917 9.41615 20.0917 8.87584 20.1061 8.3349C20.1067 8.30959 20.0944 8.29693 20.0691 8.29693C19.4825 8.29693 18.9022 8.29693 18.3281 8.29693C18.1634 8.3035 18.0159 8.25568 17.8856 8.1535C17.7359 8.036 17.6491 7.8885 17.625 7.711C17.6128 7.58912 17.6245 7.45631 17.6602 7.31256C18.0111 5.89756 18.3539 4.48256 18.6886 3.06756C18.708 2.97787 18.7411 2.8899 18.788 2.80365C18.8764 2.64146 19.0122 2.53506 19.1953 2.48443C19.3153 2.46037 19.4325 2.44865 19.5469 2.44928ZM19.9444 3.86725C19.7028 4.84943 19.46 5.85037 19.2159 6.87006C19.2131 6.88193 19.2177 6.88787 19.2295 6.88787C20.2736 6.89131 21.3211 6.89225 22.372 6.89068C22.3927 6.89068 22.4006 6.88053 22.3959 6.86021C22.1581 5.87709 21.9167 4.88303 21.6717 3.87803C21.6686 3.8649 21.6603 3.85834 21.6469 3.85834C21.09 3.8549 20.5275 3.85396 19.9594 3.85553C19.9516 3.85553 19.9466 3.85943 19.9444 3.86725ZM4.47375 12.6005C4.88688 12.6124 5.25406 12.7335 5.57531 12.9638C5.85281 13.1632 6.05594 13.4054 6.18469 13.6904C6.31938 13.9707 6.38672 14.2783 6.38672 14.6133C6.38641 15.3983 6.38641 16.1921 6.38672 16.9946C6.38672 17.0027 6.39078 17.0068 6.39891 17.0068C10.1202 17.0033 13.8523 17.0024 17.5955 17.004C17.6073 17.004 17.6133 16.998 17.6133 16.9862C17.612 16.1737 17.612 15.3749 17.6133 14.5899C17.6139 14.1899 17.7145 13.8296 17.9152 13.509C18.1058 13.2024 18.3616 12.9699 18.6825 12.8115C18.9759 12.6652 19.3031 12.594 19.6641 12.5977C19.6875 12.5977 19.6992 12.586 19.6992 12.5626C19.697 12.3126 19.697 12.0626 19.6992 11.8126C19.702 11.7054 19.6816 11.6008 19.6378 11.499C19.5631 11.3258 19.4352 11.2038 19.2539 11.1329C19.157 11.101 19.0477 11.0854 18.9258 11.086C14.3008 11.1044 9.67578 11.1044 5.05078 11.086C4.82578 11.0772 4.63734 11.1505 4.48547 11.3058C4.34984 11.4562 4.28828 11.6524 4.30078 11.8946C4.31297 12.1299 4.31297 12.3604 4.30078 12.586C4.30078 12.5904 4.35844 12.5952 4.47375 12.6005ZM4.98047 14.5655C4.98047 14.4167 4.92135 14.274 4.81613 14.1688C4.7109 14.0635 4.56819 14.0044 4.41937 14.0044H1.96781C1.819 14.0044 1.67628 14.0635 1.57106 14.1688C1.46583 14.274 1.40672 14.4167 1.40672 14.5655V20.8599C1.40672 21.0087 1.46583 21.1514 1.57106 21.2567C1.67628 21.3619 1.819 21.421 1.96781 21.421H4.41937C4.56819 21.421 4.7109 21.3619 4.81613 21.2567C4.92135 21.1514 4.98047 21.0087 4.98047 20.8599V14.5655ZM22.5933 14.5655C22.5933 14.4918 22.5788 14.4189 22.5506 14.3508C22.5224 14.2827 22.481 14.2209 22.4289 14.1688C22.3768 14.1167 22.315 14.0753 22.2469 14.0471C22.1788 14.0189 22.1059 14.0044 22.0322 14.0044H19.5806C19.4318 14.0044 19.2891 14.0635 19.1839 14.1688C19.0786 14.274 19.0195 14.4167 19.0195 14.5655V20.8599C19.0195 21.0087 19.0786 21.1514 19.1839 21.2567C19.2891 21.3619 19.4318 21.421 19.5806 21.421H22.0322C22.1059 21.421 22.1788 21.4065 22.2469 21.3783C22.315 21.3501 22.3768 21.3088 22.4289 21.2567C22.481 21.2046 22.5224 21.1427 22.5506 21.0746C22.5788 21.0065 22.5933 20.9336 22.5933 20.8599V14.5655ZM6.38391 20.9621C6.38203 21.0946 6.36047 21.2376 6.31922 21.391C6.31484 21.4116 6.32328 21.4219 6.34453 21.4219C10.1033 21.4219 13.8714 21.4219 17.6489 21.4219C17.6748 21.4219 17.685 21.4093 17.6794 21.384C17.6353 21.1899 17.6133 20.9994 17.6133 20.8126C17.6133 20.0354 17.6133 19.2451 17.6133 18.4416C17.6133 18.4207 17.6028 18.4102 17.5819 18.4102C13.8684 18.4102 10.1523 18.4102 6.43359 18.4102C6.40234 18.4102 6.38672 18.4258 6.38672 18.4571C6.39547 19.2924 6.39453 20.1274 6.38391 20.9621Z" fill="#5D6078"></path>
</svg>
