<?xml version="1.0" encoding="UTF-8"?>
<svg xmlns="http://www.w3.org/2000/svg" width="24" height="24" viewBox="0 0 24 24" fill="none">
  <g clip-path="url(#clip0_167_481)">
    <path d="M3.90516 0C5.20609 0 6.50687 0 7.8075 0C8.02562 0.0353125 8.19172 0.133906 8.30578 0.295781C8.39859 0.427969 8.4425 0.571563 8.4375 0.726563C8.43781 1.66406 8.43781 2.63375 8.4375 3.63563C8.4375 3.65469 8.44484 3.67047 8.45953 3.68297C9.45234 4.53234 10.448 5.38375 11.4464 6.23719C11.6261 6.39094 11.7169 6.58531 11.7187 6.82031C11.7306 7.44156 11.7306 8.06266 11.7187 8.68359C11.7147 8.89766 11.6327 9.06953 11.4727 9.19922C11.3208 9.33047 11.1411 9.38953 10.9336 9.37641C10.918 9.37547 10.9023 9.375 10.8867 9.375C7.52328 9.375 4.16 9.375 0.796875 9.375C0.78125 9.375 0.765625 9.37547 0.75 9.37641C0.519375 9.39109 0.325 9.30766 0.166875 9.12609C0.075 9.02016 0.019375 8.89125 0 8.73938C0 8.0675 0 7.39563 0 6.72375C0.0096875 6.60563 0.0496875 6.49813 0.12 6.40125C0.207187 6.28156 0.317969 6.17656 0.452344 6.08625C0.465156 6.0775 0.4775 6.06813 0.489375 6.05813C1.40375 5.26906 2.325 4.47938 3.25312 3.68906C3.27187 3.67313 3.28125 3.65297 3.28125 3.62859C3.28344 2.63922 3.28344 1.67578 3.28125 0.738281C3.27562 0.576406 3.31953 0.428906 3.41297 0.295781C3.52422 0.137656 3.68828 0.0390625 3.90516 0ZM7.03125 1.43438C7.03125 1.42692 7.02829 1.41976 7.02301 1.41449C7.01774 1.40921 7.01058 1.40625 7.00312 1.40625H4.71562C4.70817 1.40625 4.70101 1.40921 4.69574 1.41449C4.69046 1.41976 4.6875 1.42692 4.6875 1.43438V3.25313C4.6875 3.26058 4.69046 3.26774 4.69574 3.27301C4.70101 3.27829 4.70817 3.28125 4.71562 3.28125H7.00312C7.01058 3.28125 7.01774 3.27829 7.02301 3.27301C7.02829 3.26774 7.03125 3.26058 7.03125 3.25313V1.43438ZM10.29 7.10391C9.36594 6.30641 8.43172 5.50563 7.48734 4.70156C7.47609 4.69219 7.46312 4.6875 7.44844 4.6875C6.38125 4.6875 5.32125 4.6875 4.26844 4.6875C4.25125 4.6875 4.23594 4.69313 4.2225 4.70438C3.29469 5.50469 2.37875 6.28984 1.47469 7.05984C1.43219 7.09609 1.41 7.14203 1.40812 7.19766C1.39969 7.48109 1.40344 7.72938 1.41937 7.9425C1.42031 7.95813 1.42859 7.96594 1.44422 7.96594C4.35359 7.96938 7.30094 7.97031 10.2862 7.96875C10.3016 7.96875 10.3094 7.96109 10.3097 7.94578C10.3131 7.71984 10.3139 7.45531 10.312 7.15219C10.312 7.1325 10.3047 7.11641 10.29 7.10391Z" fill="#5D6078"></path>
    <path d="M14.2266 3.84373C17.2344 3.8628 20.2422 3.8628 23.25 3.84373C23.5112 3.84311 23.7173 3.9417 23.8683 4.13951C23.9392 4.2367 23.9831 4.35389 24 4.49108C24 10.788 24 17.0848 24 23.3817C23.9566 23.597 23.858 23.7592 23.7042 23.8683C23.607 23.937 23.4937 23.9809 23.3644 24C15.7863 24 8.20813 24 0.63 24C0.41125 23.9628 0.245156 23.8642 0.131719 23.7042C0.0629687 23.607 0.0190625 23.4937 0 23.3644C0 19.5634 0 15.7626 0 11.962C0.0228125 11.8167 0.0784375 11.6936 0.166875 11.5926C0.332188 11.4048 0.534375 11.3212 0.773438 11.3419C0.789062 11.3431 0.804688 11.3437 0.820312 11.3437C4.91406 11.3437 9.02922 11.3437 13.1658 11.3437C13.2011 11.3437 13.2188 11.3261 13.2188 11.2908C13.2188 9.05639 13.2188 6.83967 13.2188 4.64061C13.2188 4.62498 13.2183 4.60936 13.2173 4.59373C13.2036 4.34155 13.3008 4.13748 13.5089 3.98155C13.5845 3.9153 13.6753 3.87326 13.7812 3.85545C13.9019 3.84639 14.0503 3.84248 14.2266 3.84373ZM22.5885 5.27584C22.5885 5.26714 22.585 5.2588 22.5788 5.25266C22.5727 5.24652 22.5643 5.24308 22.5556 5.24309L14.6525 5.25688C14.6482 5.25689 14.6439 5.25775 14.6399 5.2594C14.636 5.26106 14.6324 5.26348 14.6293 5.26653C14.6263 5.26959 14.6239 5.27321 14.6222 5.27719C14.6206 5.28117 14.6197 5.28544 14.6197 5.28975L14.6303 11.3179C14.6303 11.3266 14.6338 11.3349 14.6399 11.3411C14.6461 11.3472 14.6544 11.3506 14.6631 11.3506L22.5662 11.3368C22.5706 11.3368 22.5748 11.336 22.5788 11.3343C22.5828 11.3327 22.5864 11.3302 22.5894 11.3272C22.5925 11.3241 22.5949 11.3205 22.5965 11.3165C22.5982 11.3125 22.599 11.3083 22.599 11.304L22.5885 5.27584ZM1.41469 14.1403C1.415 14.1509 1.42047 14.1562 1.43109 14.1562C5.35203 14.1562 9.26828 14.1562 13.1798 14.1562C13.2058 14.1562 13.2188 14.1433 13.2188 14.1173C13.2188 13.6745 13.2188 13.2317 13.2188 12.7889C13.2188 12.763 13.2058 12.75 13.1798 12.75C9.26828 12.75 5.35641 12.75 1.44422 12.75C1.41953 12.75 1.40703 12.7623 1.40672 12.787C1.40203 13.2617 1.40469 13.7128 1.41469 14.1403ZM22.5938 12.7828C22.5938 12.7741 22.5903 12.7657 22.5841 12.7596C22.578 12.7534 22.5696 12.75 22.5609 12.75H14.6578C14.6491 12.75 14.6408 12.7534 14.6346 12.7596C14.6285 12.7657 14.625 12.7741 14.625 12.7828V22.5609C14.625 22.5696 14.6285 22.578 14.6346 22.5841C14.6408 22.5903 14.6491 22.5937 14.6578 22.5937H22.5609C22.5696 22.5937 22.578 22.5903 22.5841 22.5841C22.5903 22.578 22.5938 22.5696 22.5938 22.5609V12.7828ZM9.46875 15.5953C9.46875 15.5866 9.46529 15.5782 9.45914 15.5721C9.45299 15.5659 9.44464 15.5625 9.43594 15.5625H1.43906C1.43036 15.5625 1.42201 15.5659 1.41586 15.5721C1.40971 15.5782 1.40625 15.5866 1.40625 15.5953V22.5609C1.40625 22.5696 1.40971 22.578 1.41586 22.5841C1.42201 22.5903 1.43036 22.5937 1.43906 22.5937H9.43594C9.44464 22.5937 9.45299 22.5903 9.45914 22.5841C9.46529 22.578 9.46875 22.5696 9.46875 22.5609V15.5953ZM13.2188 15.5953C13.2188 15.5866 13.2153 15.5782 13.2091 15.5721C13.203 15.5659 13.1946 15.5625 13.1859 15.5625H10.9078C10.8991 15.5625 10.8908 15.5659 10.8846 15.5721C10.8785 15.5782 10.875 15.5866 10.875 15.5953V22.5609C10.875 22.5696 10.8785 22.578 10.8846 22.5841C10.8908 22.5903 10.8991 22.5937 10.9078 22.5937H13.1859C13.1946 22.5937 13.203 22.5903 13.2091 22.5841C13.2153 22.578 13.2188 22.5696 13.2188 22.5609V15.5953Z" fill="#5D6078"></path>
    <path d="M16.7221 7.12492C16.9677 7.11523 17.1621 7.21382 17.3052 7.4207C17.4181 7.58445 17.4626 7.77101 17.4388 7.98039C17.4376 7.99601 17.437 8.01164 17.437 8.02726C17.4376 8.41414 17.4376 8.80867 17.437 9.21086C17.4367 9.46304 17.3399 9.65929 17.1468 9.7996C16.979 9.9221 16.8023 9.96414 16.6167 9.9257C16.4126 9.8882 16.2602 9.79054 16.1596 9.63273C16.0637 9.48523 16.0207 9.30945 16.0307 9.10539C16.0382 8.69539 16.0382 8.28523 16.0307 7.87492C16.0273 7.68679 16.081 7.5257 16.192 7.39164C16.3217 7.21945 16.4984 7.13054 16.7221 7.12492Z" fill="#5D6078"></path>
    <path d="M16.7367 14.1599L16.7283 14.1599C16.3433 14.1606 16.0318 14.4732 16.0325 14.8582L16.0349 16.2691C16.0356 16.6541 16.3482 16.9656 16.7332 16.9649L16.7416 16.9649C17.1266 16.9642 17.4381 16.6516 17.4374 16.2667L17.435 14.8557C17.4343 14.4708 17.1217 14.1592 16.7367 14.1599Z" fill="#5D6078"></path>
    <path d="M7.35992 17.6748H7.35898C6.97195 17.6748 6.6582 17.9886 6.6582 18.3756V19.7809C6.6582 20.1679 6.97195 20.4817 7.35898 20.4817H7.35992C7.74695 20.4817 8.0607 20.1679 8.0607 19.7809V18.3756C8.0607 17.9886 7.74695 17.6748 7.35992 17.6748Z" fill="#5D6078"></path>
  </g>
  <defs>
    <clipPath id="clip0_167_481">
      <rect width="24" height="24" fill="white"></rect>
    </clipPath>
  </defs>
</svg>
