<?xml version="1.0" encoding="UTF-8"?>
<svg xmlns="http://www.w3.org/2000/svg" width="24" height="24" viewBox="0 0 24 24" fill="none">
  <g clip-path="url(#clip0_167_505)">
    <path d="M5.27344 0.421779C5.36656 0.425529 5.46031 0.433341 5.55469 0.445216C7.02719 0.628966 8.49203 0.746153 9.94922 0.796778C11.3202 0.850528 12.6912 0.850528 14.0625 0.796778C15.5741 0.737716 17.1014 0.613654 18.6445 0.424591C18.6602 0.422716 18.6758 0.421466 18.6914 0.420841C18.9089 0.413341 19.1198 0.468341 19.3242 0.585841C19.4864 0.676466 19.6183 0.802403 19.7198 0.963653C19.847 1.16584 19.9105 1.39537 19.9102 1.65225C19.907 4.28912 19.907 6.92584 19.9102 9.5624C19.9167 9.76053 19.9128 9.94022 19.8984 10.1015C19.8787 10.3427 19.7859 10.5585 19.62 10.7488C19.3672 11.0388 19.0537 11.1746 18.6797 11.1562C18.5559 11.1505 18.423 11.1377 18.2808 11.1177C18.2705 11.1171 18.2655 11.1221 18.2658 11.1327C18.2711 11.414 18.2709 11.701 18.2653 11.9938C18.265 12.0057 18.2708 12.0116 18.2827 12.0116C19.3755 12.0144 20.4492 12.0144 21.5039 12.0116C21.683 12.0113 21.8587 12.0152 22.0312 12.0233C22.4344 12.0424 22.8064 12.1782 23.1473 12.4307C23.4817 12.6782 23.7181 12.9887 23.8566 13.3621C23.9375 13.5708 23.9853 13.8013 24 14.0535C24 15.7997 24 17.5458 24 19.2918C23.9944 19.2949 23.9905 19.3135 23.9883 19.3476C23.957 19.8032 23.7861 20.2104 23.4755 20.5691C23.2245 20.8594 22.915 21.0655 22.5469 21.1874C22.2119 21.2946 21.8205 21.3268 21.3727 21.284C21.343 21.2818 21.3281 21.2955 21.3281 21.3252C21.3231 21.4524 21.3231 21.5783 21.3281 21.703C21.3328 21.8477 21.3962 21.9718 21.5184 22.0752C21.6409 22.168 21.7845 22.2158 21.9492 22.2187C22.0986 22.2212 22.2305 22.2768 22.3448 22.3855C22.5273 22.5327 22.6103 22.7232 22.5938 22.9569C22.5737 23.2113 22.4556 23.4018 22.2394 23.5283C22.1344 23.5896 22.022 23.6218 21.9023 23.6249C21.3798 23.6305 20.9277 23.4538 20.5458 23.0947C20.1545 22.7338 19.9466 22.2933 19.9219 21.7733C19.9147 21.6252 19.9147 21.476 19.9219 21.3257C19.9219 21.3038 19.9109 21.2929 19.8891 21.2929C14.6219 21.2929 9.3625 21.2929 4.11094 21.2929C4.08906 21.2929 4.07812 21.3038 4.07812 21.3257C4.08281 21.4719 4.08281 21.6094 4.07812 21.7382C4.06375 22.1835 3.91047 22.5771 3.61828 22.919C3.28203 23.2987 2.865 23.5262 2.36719 23.6015C2.135 23.6368 1.93281 23.6124 1.76063 23.5283C1.59469 23.4371 1.48438 23.2935 1.42969 23.0976C1.38688 22.946 1.39859 22.7976 1.46484 22.6522C1.54109 22.4769 1.66906 22.351 1.84875 22.2744C1.925 22.2419 2.00797 22.2233 2.09766 22.2187C2.30641 22.2152 2.46953 22.1283 2.58703 21.958C2.64672 21.8712 2.675 21.7783 2.67188 21.6796C2.67313 21.5621 2.67453 21.4416 2.67609 21.3182C2.67672 21.301 2.66844 21.2926 2.65125 21.2929C2.37625 21.3029 2.13313 21.299 1.92188 21.2812C1.47469 21.2471 1.07922 21.0801 0.735469 20.7801C0.304844 20.4138 0.0635938 19.9519 0.0117188 19.3944C0.00734375 19.3472 0.0034375 19.3112 0 19.2862C0 17.5321 0 15.7782 0 14.0244C0.0034375 13.9904 0.00734375 13.9483 0.0117188 13.8983C0.0598437 13.3474 0.301094 12.8894 0.735469 12.5244C1.13797 12.1804 1.61156 12.0094 2.15625 12.0116C3.34625 12.0163 4.52109 12.0154 5.68078 12.0088C5.69641 12.0088 5.70422 12.001 5.70422 11.9854C5.70766 11.7444 5.70859 11.4632 5.70703 11.1416C5.70672 11.1251 5.69844 11.1177 5.68219 11.1196C5.53813 11.1418 5.40969 11.154 5.29688 11.1562C5.04625 11.1643 4.82062 11.0969 4.62 10.9541C4.27406 10.7026 4.10125 10.3597 4.10156 9.92568C4.10313 7.156 4.10313 4.38647 4.10156 1.61709C4.10156 1.31022 4.19828 1.04756 4.39172 0.829122C4.62984 0.56006 4.92375 0.424279 5.27344 0.421779ZM10.995 2.23537C9.16531 2.20256 7.34672 2.0774 5.53922 1.8599C5.51828 1.8574 5.50781 1.86678 5.50781 1.88803C5.50781 3.37147 5.50781 4.85818 5.50781 6.34818C5.50781 6.37756 5.52234 6.39115 5.55141 6.38897C5.68859 6.37147 5.81859 6.35897 5.94141 6.35147C7.44422 6.25959 8.84 6.59928 10.1287 7.37053C10.1519 7.38428 10.173 7.38178 10.192 7.36303C10.5717 6.97959 10.9956 6.63943 11.4637 6.34256C12.6163 5.61256 13.877 5.24443 15.2461 5.23818C16.3889 5.22975 17.465 5.4749 18.4744 5.97365C18.4941 5.98303 18.5039 5.97678 18.5039 5.9549C18.5039 4.61772 18.5039 3.26818 18.5039 1.90631C18.5039 1.871 18.4864 1.85537 18.4514 1.85943C16.0352 2.156 13.5497 2.28131 10.995 2.23537ZM18.4678 7.59131C17.4041 6.90225 16.2364 6.59053 14.9648 6.65615C14.162 6.6974 13.4012 6.90146 12.6825 7.26834C12.2181 7.5049 11.7953 7.79693 11.4141 8.14443C11.0312 8.4935 10.6984 8.88615 10.4156 9.3224C10.3988 9.34834 10.4056 9.36084 10.4362 9.3599C11.9644 9.3174 13.4895 9.33803 15.0117 9.42178C16.1498 9.48459 17.2978 9.58318 18.4556 9.71756C18.4878 9.72131 18.5039 9.70693 18.5039 9.67443C18.5039 9.006 18.5039 8.33397 18.5039 7.65834C18.5039 7.62928 18.4919 7.60693 18.4678 7.59131ZM9.2475 8.48147C8.40312 8.01678 7.50812 7.77162 6.5625 7.746C6.23156 7.73693 5.88766 7.75709 5.53078 7.80646C5.51547 7.80865 5.50781 7.8174 5.50781 7.83272C5.50781 8.47022 5.50781 9.09397 5.50781 9.70397C5.50781 9.71709 5.51422 9.72287 5.52703 9.72131C6.58609 9.59818 7.65125 9.5024 8.7225 9.43396C8.74594 9.4324 8.7625 9.421 8.77219 9.39975C8.91062 9.10225 9.07281 8.81147 9.25875 8.5274C9.27156 8.50803 9.26781 8.49271 9.2475 8.48147ZM16.8352 12.0144C16.8464 12.0144 16.8522 12.009 16.8525 11.998C16.8637 11.6655 16.867 11.3327 16.8623 10.9996C16.862 10.9765 16.8505 10.964 16.8277 10.9621C15.8811 10.8765 14.9477 10.8162 14.0273 10.7812C12.352 10.7177 10.6841 10.7333 9.02344 10.828C8.44031 10.8602 7.81531 10.9052 7.14844 10.963C7.12531 10.9652 7.11375 10.9779 7.11375 11.001C7.11187 11.3538 7.11266 11.683 7.11609 11.9887C7.11641 12.004 7.12422 12.0116 7.13953 12.0116C10.413 12.0101 13.6448 12.011 16.8352 12.0144ZM1.66125 19.7137C1.78687 19.828 1.94016 19.8857 2.12109 19.8866C3.91016 19.8954 5.70781 19.8954 7.51406 19.8866C7.53594 19.8866 7.54688 19.8757 7.54688 19.8538C7.54688 17.7272 7.54688 15.5929 7.54688 13.4507C7.54688 13.4288 7.53594 13.4179 7.51406 13.4179C5.66594 13.4072 3.85359 13.4082 2.07703 13.4207C1.95703 13.4191 1.84375 13.4543 1.73719 13.5262C1.54219 13.658 1.43266 13.8329 1.40859 14.0507C1.40703 14.0663 1.40625 14.0819 1.40625 14.0976C1.39937 15.7772 1.39937 17.4647 1.40625 19.1601C1.40719 19.3929 1.49219 19.5774 1.66125 19.7137ZM15.0122 13.4507C15.0122 13.442 15.0087 13.4336 15.0026 13.4275C14.9964 13.4213 14.9881 13.4179 14.9794 13.4179H8.98594C8.97723 13.4179 8.96889 13.4213 8.96274 13.4275C8.95658 13.4336 8.95312 13.442 8.95312 13.4507V19.8538C8.95312 19.8625 8.95658 19.8709 8.96274 19.877C8.96889 19.8832 8.97723 19.8866 8.98594 19.8866H14.9794C14.9881 19.8866 14.9964 19.8832 15.0026 19.877C15.0087 19.8709 15.0122 19.8625 15.0122 19.8538V13.4507ZM22.3387 13.5908C22.2075 13.4762 22.0464 13.4185 21.8555 13.4179C20.0742 13.4116 18.277 13.4116 16.4639 13.4179C16.4458 13.4179 16.4342 13.4265 16.4292 13.4437C16.4217 13.4865 16.418 13.5404 16.418 13.6054C16.423 15.6679 16.423 17.7438 16.418 19.8332C16.418 19.8688 16.4358 19.8866 16.4714 19.8866C18.2795 19.8866 20.0742 19.8866 21.8555 19.8866C22.0202 19.8932 22.1677 19.8493 22.298 19.7549C22.4964 19.6049 22.595 19.3988 22.5938 19.1366C22.5856 17.4647 22.5856 15.8007 22.5938 14.1444C22.5938 14.1288 22.5933 14.1132 22.5923 14.0976C22.5777 13.8866 22.4931 13.7177 22.3387 13.5908Z" fill="#5D6078"></path>
    <path d="M4.92785 15.9463L3.99412 15.9529C3.60581 15.9556 3.29321 16.2726 3.29592 16.6609C3.29864 17.0492 3.61563 17.3618 4.00394 17.3591L4.93767 17.3526C5.32598 17.3498 5.63858 17.0329 5.63587 16.6445C5.63316 16.2562 5.31617 15.9436 4.92785 15.9463Z" fill="#5D6078"></path>
    <path d="M12.4678 15.9507H11.5303C11.1425 15.9507 10.8281 16.2651 10.8281 16.6529C10.8281 17.0407 11.1425 17.3551 11.5303 17.3551H12.4678C12.8556 17.3551 13.17 17.0407 13.17 16.6529C13.17 16.2651 12.8556 15.9507 12.4678 15.9507Z" fill="#5D6078"></path>
    <path d="M19.9444 15.9507H19.0069C18.6191 15.9507 18.3047 16.2651 18.3047 16.6529C18.3047 17.0407 18.6191 17.3551 19.0069 17.3551H19.9444C20.3322 17.3551 20.6466 17.0407 20.6466 16.6529C20.6466 16.2651 20.3322 15.9507 19.9444 15.9507Z" fill="#5D6078"></path>
  </g>
  <defs>
    <clipPath id="clip0_167_505">
      <rect width="24" height="24" fill="white"></rect>
    </clipPath>
  </defs>
</svg>
