<?xml version="1.0" encoding="UTF-8"?>
<svg xmlns="http://www.w3.org/2000/svg" width="24" height="24" viewBox="0 0 24 24" fill="none">
  <g clip-path="url(#clip0_370_1209)">
    <path d="M17.5458 -0.00038762C17.5889 -0.00038762 17.6319 -0.00038762 17.6747 -0.00038762C17.9009 0.0380499 18.0748 0.144456 18.1964 0.318831C18.2808 0.440394 18.3208 0.583987 18.3164 0.749612C18.3164 2.83149 18.3164 4.90586 18.3164 6.97274C18.3164 7.00024 18.3286 7.01992 18.353 7.0318C20.0936 7.90086 21.8227 8.75696 23.5402 9.60008C23.8073 9.73133 23.9606 9.93836 24 10.2212C24 14.608 24 18.9948 24 23.3813C23.9566 23.5966 23.858 23.7588 23.7042 23.8679C23.607 23.9366 23.4937 23.9806 23.3644 23.9996C15.7863 23.9996 8.20813 23.9996 0.63 23.9996C0.41125 23.9624 0.245156 23.8638 0.131719 23.7038C0.0629687 23.6066 0.0190625 23.4934 0 23.364C0 18.8171 0 14.2702 0 9.72336C0.0171875 9.59742 0.0610937 9.48602 0.131719 9.38914C0.274531 9.19227 0.468906 9.09367 0.714844 9.09336C2.33984 9.09149 3.96484 9.09149 5.58984 9.09336C5.62328 9.09336 5.63984 9.07664 5.63953 9.04321C5.63984 7.71664 5.63891 6.39742 5.63672 5.08555C5.62109 4.85774 5.62594 4.65946 5.65125 4.49071C5.68781 4.24883 5.81344 4.08024 6.02813 3.98492C6.0425 3.97836 6.05703 3.97258 6.07172 3.96758C9.85828 2.63008 13.6586 1.31133 17.4727 0.0113311C17.5017 0.00133113 17.5261 -0.00257512 17.5458 -0.00038762ZM7.05469 22.5113C7.045 22.5657 7.04891 22.5931 7.06641 22.5934C7.52703 22.6043 7.98797 22.6043 8.44922 22.5934C8.47266 22.5934 8.48438 22.5816 8.48438 22.5582C8.47594 21.0463 8.47594 19.5424 8.48438 18.0465C8.48687 17.9374 8.51516 17.8368 8.56922 17.7446C8.70297 17.5171 8.89734 17.3918 9.15234 17.3687C9.16797 17.3674 9.18359 17.3668 9.19922 17.3668C10.9611 17.3709 12.7306 17.3709 14.5078 17.3668C14.6756 17.3565 14.8192 17.3613 14.9386 17.3813C15.1833 17.4223 15.3552 17.559 15.4542 17.7915C15.4955 17.8955 15.5159 18.0001 15.5156 18.1051C15.51 19.5738 15.51 21.0587 15.5156 22.5596C15.5156 22.5802 15.5259 22.5905 15.5466 22.5905C15.9719 22.594 16.413 22.5949 16.8698 22.5934C16.8967 22.5934 16.9102 22.5798 16.9102 22.5526C16.9102 15.6266 16.9102 8.6868 16.9102 1.73305C16.9102 1.70492 16.8969 1.69539 16.8703 1.70446C13.6066 2.83696 10.3441 3.96868 7.08281 5.09961C7.05625 5.10868 7.04297 5.12711 7.04297 5.15493C7.04703 10.9212 7.04703 16.6793 7.04297 22.4293C7.05516 22.4643 7.05906 22.4916 7.05469 22.5113ZM22.5675 10.6871C21.1644 9.99399 19.7611 9.29821 18.3577 8.59977C18.338 8.59008 18.3281 8.59617 18.3281 8.61805C18.3281 12.3177 18.3281 16.0274 18.3281 19.7471C18.3281 19.7677 18.3384 19.778 18.3591 19.778C19.7531 19.7815 21.153 19.7824 22.5586 19.7809C22.582 19.7809 22.5938 19.7691 22.5938 19.7457C22.5938 16.7301 22.5938 13.7246 22.5938 10.7293C22.5938 10.7099 22.585 10.6959 22.5675 10.6871ZM5.63719 10.5259C5.63719 10.5189 5.63442 10.5122 5.6295 10.5073C5.62458 10.5024 5.6179 10.4996 5.61094 10.4996H1.4325C1.42554 10.4996 1.41886 10.5024 1.41394 10.5073C1.40902 10.5122 1.40625 10.5189 1.40625 10.5259V19.7546C1.40625 19.7616 1.40902 19.7683 1.41394 19.7732C1.41886 19.7781 1.42554 19.7809 1.4325 19.7809H5.61094C5.6179 19.7809 5.62458 19.7781 5.6295 19.7732C5.63442 19.7683 5.63719 19.7616 5.63719 19.7546V10.5259ZM11.2969 18.8007C11.2969 18.7934 11.294 18.7863 11.2888 18.7812C11.2836 18.776 11.2766 18.7731 11.2692 18.7731H9.91828C9.91095 18.7731 9.90391 18.776 9.89873 18.7812C9.89354 18.7863 9.89062 18.7934 9.89062 18.8007V22.5657C9.89062 22.573 9.89354 22.5801 9.89873 22.5853C9.90391 22.5904 9.91095 22.5934 9.91828 22.5934H11.2692C11.2766 22.5934 11.2836 22.5904 11.2888 22.5853C11.294 22.5801 11.2969 22.573 11.2969 22.5657V18.8007ZM14.1094 18.8007C14.1094 18.7934 14.1065 18.7863 14.1013 18.7812C14.0961 18.776 14.0891 18.7731 14.0817 18.7731H12.7308C12.7234 18.7731 12.7164 18.776 12.7112 18.7812C12.706 18.7863 12.7031 18.7934 12.7031 18.8007V22.5657C12.7031 22.573 12.706 22.5801 12.7112 22.5853C12.7164 22.5904 12.7234 22.5934 12.7308 22.5934H14.0817C14.0891 22.5934 14.0961 22.5904 14.1013 22.5853C14.1065 22.5801 14.1094 22.573 14.1094 22.5657V18.8007ZM5.64 21.2223C5.64031 21.2007 5.62969 21.1899 5.60812 21.1899C4.24375 21.1865 2.87437 21.1856 1.5 21.1871C1.4375 21.1871 1.40625 21.2184 1.40625 21.2809C1.40625 21.6871 1.40625 22.0934 1.40625 22.4996C1.40625 22.5621 1.4375 22.5934 1.5 22.5934C2.87437 22.5949 4.24203 22.594 5.60297 22.5905C5.62797 22.5905 5.64031 22.5779 5.64 22.5526C5.635 22.1073 5.635 21.6638 5.64 21.2223ZM22.5938 21.2152C22.5938 21.2078 22.5908 21.2006 22.5855 21.1954C22.5802 21.1901 22.5731 21.1871 22.5656 21.1871H18.3563C18.3488 21.1871 18.3416 21.1901 18.3364 21.1954C18.3311 21.2006 18.3281 21.2078 18.3281 21.2152V22.5652C18.3281 22.5727 18.3311 22.5798 18.3364 22.5851C18.3416 22.5904 18.3488 22.5934 18.3563 22.5934H22.5656C22.5731 22.5934 22.5802 22.5904 22.5855 22.5851C22.5908 22.5798 22.5938 22.5727 22.5938 22.5652V21.2152Z" fill="#5D6078"></path>
    <path d="M14.8134 3.94873H14.8116C14.4238 3.94873 14.1094 4.26311 14.1094 4.65092V15.2569C14.1094 15.6447 14.4238 15.959 14.8116 15.959H14.8134C15.2012 15.959 15.5156 15.6447 15.5156 15.2569V4.65092C15.5156 4.26311 15.2012 3.94873 14.8134 3.94873Z" fill="#5D6078"></path>
    <path d="M12.0005 4.93262H11.9995C11.6115 4.93262 11.2969 5.24721 11.2969 5.63527V15.2568C11.2969 15.6449 11.6115 15.9595 11.9995 15.9595H12.0005C12.3885 15.9595 12.7031 15.6449 12.7031 15.2568V5.63527C12.7031 5.24721 12.3885 4.93262 12.0005 4.93262Z" fill="#5D6078"></path>
    <path d="M9.18797 5.91699H9.18703C8.79896 5.91699 8.48438 6.23158 8.48438 6.61965V15.2568C8.48438 15.6449 8.79896 15.9595 9.18703 15.9595H9.18797C9.57604 15.9595 9.89062 15.6449 9.89062 15.2568V6.61965C9.89062 6.23158 9.57604 5.91699 9.18797 5.91699Z" fill="#5D6078"></path>
  </g>
  <defs>
    <clipPath id="clip0_370_1209">
      <rect width="24" height="24" fill="white"></rect>
    </clipPath>
  </defs>
</svg>
