<?xml version="1.0" encoding="UTF-8"?>
<svg xmlns="http://www.w3.org/2000/svg" width="24" height="24" viewBox="0 0 24 24" fill="none">
  <g clip-path="url(#clip0_370_1231)">
    <path d="M6.69141 0.761705C10.6836 0.780455 14.6758 0.780455 18.668 0.761705C18.9205 0.758892 19.1627 0.762799 19.3945 0.773424C19.9642 0.794049 20.4945 0.966861 20.9855 1.29186C21.4811 1.61124 21.8522 2.03311 22.0988 2.55749C22.6569 3.74592 23.2086 4.93639 23.7539 6.12889C23.9655 6.58327 24.0358 7.06374 23.9648 7.5703C23.908 7.9503 23.7625 8.29702 23.5284 8.61045C23.315 8.90358 23.0494 9.13405 22.7316 9.30186C22.4216 9.47061 22.0905 9.5653 21.7383 9.58592C21.5158 9.59405 21.258 9.59795 20.9648 9.59764C14.9492 9.58827 8.93359 9.58827 2.91797 9.59764C2.69328 9.59921 2.48234 9.5953 2.28516 9.58592C1.90016 9.56717 1.54078 9.4617 1.20703 9.26952C0.891094 9.09608 0.626406 8.85295 0.412969 8.54014C0.176719 8.19296 0.0390625 7.80624 0 7.37999C0 7.24717 0 7.11436 0 6.98155C0.0434375 6.65405 0.149844 6.31217 0.319219 5.95592C0.840469 4.85999 1.35219 3.75842 1.85438 2.65124C1.99875 2.33311 2.18828 2.04608 2.42297 1.79014C2.74703 1.43639 3.13078 1.1717 3.57422 0.99608C3.87703 0.860142 4.19734 0.785924 4.53516 0.773424C5.25078 0.762174 5.96953 0.758267 6.69141 0.761705ZM1.91906 7.8192C2.02156 7.90045 2.13594 7.9528 2.26219 7.97624C2.2775 7.97905 2.29297 7.98061 2.30859 7.98092C3.39953 7.99405 4.52094 7.99764 5.67281 7.9917C5.71469 7.9917 5.74016 7.97124 5.74922 7.9303C6.15359 6.11124 6.56219 4.26858 6.975 2.40233C6.97969 2.38077 6.97094 2.36999 6.94875 2.36999C6.16844 2.36092 5.39125 2.36374 4.61719 2.37842C4.60156 2.37874 4.58594 2.37999 4.57031 2.38217C4.31 2.41936 4.07266 2.51295 3.85828 2.66295C3.61797 2.84327 3.42859 3.08358 3.29016 3.38389C2.73828 4.57952 2.18484 5.76577 1.62984 6.94264C1.62328 6.9567 1.61813 6.97139 1.61438 6.9867C1.58656 7.09952 1.58359 7.20811 1.60547 7.31249C1.64922 7.52092 1.75375 7.68983 1.91906 7.8192ZM7.47375 7.98327C8.67531 7.99358 9.90172 7.99639 11.153 7.9917C11.1805 7.9917 11.1942 7.97795 11.1942 7.95045C11.2036 6.15639 11.2066 4.32264 11.2031 2.4492C11.2031 2.39452 11.1758 2.36717 11.1211 2.36717C10.3086 2.36717 9.49203 2.36717 8.67141 2.36717C8.63953 2.36717 8.62016 2.3828 8.61328 2.41405C8.20828 4.25717 7.80203 6.0892 7.39453 7.91014C7.38359 7.95827 7.41 7.98264 7.47375 7.98327ZM12.8058 2.39952C12.8092 4.22045 12.8102 6.07124 12.8086 7.95186C12.8086 7.97874 12.822 7.99217 12.8489 7.99217C14.0758 7.99217 15.3131 7.99217 16.5609 7.99217C16.5959 7.99217 16.6095 7.97514 16.6017 7.94108C16.1942 6.10014 15.7853 4.25389 15.375 2.40233C15.3697 2.37889 15.3552 2.36717 15.3314 2.36717C14.5011 2.36717 13.6698 2.36717 12.8377 2.36717C12.8164 2.36717 12.8058 2.37795 12.8058 2.39952ZM22.2263 7.66217C22.3819 7.50405 22.4331 7.29077 22.38 7.02233C22.3516 6.92733 22.3105 6.82389 22.2567 6.71202C21.7248 5.60389 21.2073 4.48858 20.7042 3.36608C20.6008 3.11202 20.4406 2.89717 20.2238 2.72155C19.92 2.48186 19.5655 2.36374 19.1602 2.36717C18.4689 2.37311 17.7767 2.37311 17.0836 2.36717C17.0358 2.36717 17.017 2.39061 17.0273 2.43749C17.4327 4.26186 17.8389 6.08608 18.2461 7.91014C18.2564 7.95702 18.2856 7.98045 18.3338 7.98045C19.4278 7.99327 20.5197 7.99327 21.6094 7.98045C21.8647 7.97733 22.0603 7.88311 22.1963 7.6978C22.2053 7.68499 22.2153 7.67311 22.2263 7.66217Z" fill="#5D6078"></path>
    <path d="M2.39063 11.2032C2.61531 11.2082 2.80766 11.2971 2.96766 11.47C3.10672 11.6196 3.17609 11.8081 3.17578 12.0353C3.18078 14.9415 3.18078 17.84 3.17578 20.7306C3.17578 20.7462 3.17516 20.7618 3.17391 20.7775C3.15359 21.015 3.22938 21.2211 3.40125 21.3957C3.58 21.5651 3.79781 21.6442 4.05469 21.6329C4.30063 21.6223 4.53016 21.6214 4.74328 21.6301C4.75891 21.6301 4.76672 21.6223 4.76672 21.6067C4.76953 19.7642 4.77047 17.9136 4.76953 16.0548C4.76922 15.5823 4.88734 15.1496 5.12391 14.7568C5.29266 14.4765 5.51141 14.2421 5.78016 14.0537C6.21578 13.7531 6.70313 13.6037 7.24219 13.6056C7.83469 13.6078 8.41672 13.6117 8.98828 13.6173C9.00391 13.6173 9.01953 13.6181 9.03516 13.6196C9.43516 13.6568 9.81313 13.7976 10.1691 14.042C10.3331 14.1548 10.4777 14.2876 10.6027 14.4404C10.9261 14.8111 11.1145 15.2359 11.168 15.715C11.1889 15.9031 11.1967 16.1023 11.1914 16.3126C11.1877 18.082 11.1877 19.8464 11.1914 21.6057C11.1914 21.6239 11.2005 21.6329 11.2186 21.6329C14.138 21.6179 17.043 21.6179 19.9336 21.6329C20.1608 21.6342 20.3552 21.5786 20.5167 21.4661C20.7214 21.3067 20.8239 21.0967 20.8242 20.8361C20.8267 17.9026 20.8267 14.969 20.8242 12.0353C20.8239 11.8209 20.8855 11.6403 21.0089 11.4934C21.1555 11.3168 21.3361 11.2201 21.5508 11.2032C21.7905 11.1789 21.9984 11.2482 22.1747 11.4114C22.3459 11.5836 22.4309 11.7993 22.4297 12.0587C22.415 14.9728 22.415 17.8868 22.4297 20.8009C22.4322 21.2703 22.3141 21.7029 22.0753 22.0989C21.9275 22.3439 21.74 22.5548 21.5128 22.7317C21.0656 23.0776 20.5548 23.2504 19.9805 23.2501C14.7342 23.2376 9.48813 23.2376 4.24219 23.2501C4.01031 23.2507 3.78469 23.2381 3.56531 23.2121C3.05469 23.1309 2.61531 22.8984 2.24719 22.5146C1.81688 22.0668 1.59156 21.5386 1.57125 20.9298C1.57063 20.9142 1.57031 20.8986 1.57031 20.8829C1.57344 17.9257 1.57344 14.9609 1.57031 11.9884C1.57 11.7643 1.655 11.572 1.82531 11.4114C1.9875 11.2607 2.17594 11.1914 2.39063 11.2032ZM9.28406 15.3957C9.1475 15.2745 8.9825 15.2129 8.78906 15.2111C8.26563 15.2061 7.74219 15.2061 7.21875 15.2111C7.00813 15.202 6.82156 15.2654 6.65906 15.4014C6.46813 15.5701 6.37344 15.7879 6.375 16.0548C6.38563 17.8986 6.38563 19.7423 6.375 21.5861C6.375 21.6173 6.39063 21.6329 6.42188 21.6329C7.45313 21.6329 8.49172 21.6329 9.53766 21.6329C9.56797 21.6329 9.58313 21.6178 9.58313 21.5875C9.60063 19.7571 9.60156 17.9012 9.58594 16.0196C9.58375 15.7534 9.48313 15.5454 9.28406 15.3957Z" fill="#5D6078"></path>
    <path d="M19.2178 17.6178C19.2167 18.2583 18.9612 18.8721 18.5075 19.3242C18.0538 19.7763 17.4391 20.0297 16.7986 20.0286L14.4108 20.0244C14.0936 20.0239 13.7797 19.9608 13.4869 19.839C13.1941 19.7171 12.9282 19.5387 12.7044 19.3141C12.4805 19.0895 12.3031 18.8229 12.1822 18.5297C12.0614 18.2365 11.9994 17.9223 12 17.6052L12.0028 16.0133C12.0033 15.6962 12.0663 15.3823 12.1882 15.0895C12.3101 14.7967 12.4884 14.5308 12.7131 14.3069C12.9377 14.083 13.2043 13.9056 13.4975 13.7848C13.7907 13.6639 14.1049 13.602 14.422 13.6025L16.8098 13.6067C17.4503 13.6078 18.0641 13.8633 18.5162 14.317C18.9683 14.7707 19.2217 15.3854 19.2206 16.0259L19.2178 17.6178ZM17.6142 16.0173C17.6142 15.8033 17.5292 15.5981 17.3779 15.4468C17.2266 15.2956 17.0214 15.2106 16.8075 15.2106H14.4131C14.3072 15.2106 14.2023 15.2314 14.1044 15.272C14.0065 15.3125 13.9176 15.3719 13.8427 15.4468C13.7678 15.5218 13.7083 15.6107 13.6678 15.7086C13.6273 15.8064 13.6064 15.9113 13.6064 16.0173V17.6148C13.6064 17.7207 13.6273 17.8256 13.6678 17.9235C13.7083 18.0214 13.7678 18.1103 13.8427 18.1852C13.9176 18.2601 14.0065 18.3195 14.1044 18.3601C14.2023 18.4006 14.3072 18.4215 14.4131 18.4215H16.8075C17.0214 18.4215 17.2266 18.3365 17.3779 18.1852C17.5292 18.0339 17.6142 17.8287 17.6142 17.6148V16.0173Z" fill="#5D6078"></path>
  </g>
  <defs>
    <clipPath id="clip0_370_1231">
      <rect width="24" height="24" fill="white"></rect>
    </clipPath>
  </defs>
</svg>
