<?xml version="1.0" encoding="UTF-8"?>
<svg xmlns="http://www.w3.org/2000/svg" width="24" height="24" viewBox="0 0 24 24" fill="none">
  <g clip-path="url(#clip0_370_1226)">
    <path d="M11.7919 0C11.9247 0 12.0575 0 12.1903 0C12.1903 0.0059375 12.1903 0.00890625 12.1903 0.00890625C13.3156 0.0139062 14.4231 0.101719 15.5128 0.272344C16.3638 0.405469 17.1811 0.592031 17.9648 0.832031C18.6995 1.05422 19.4036 1.34625 20.077 1.70812C20.493 1.93312 20.8817 2.19672 21.2433 2.49891C21.5627 2.76297 21.8458 3.0775 22.0927 3.4425C22.3927 3.87594 22.5441 4.35344 22.5469 4.875C22.5491 5.29063 22.4622 5.67641 22.2863 6.03234C22.1588 6.31109 21.983 6.58063 21.7589 6.84094C21.4027 7.24375 20.9827 7.59328 20.4989 7.88953C20.2636 8.03391 20.0197 8.17156 19.7672 8.3025C19.7453 8.31375 19.7344 8.33156 19.7344 8.35594C19.7344 9.41031 19.7344 10.4755 19.7344 11.5514C19.7344 11.5983 19.7539 11.6345 19.793 11.6602C21.0692 12.5061 22.3475 13.3489 23.6278 14.1886C23.8512 14.3352 23.9753 14.5363 24 14.7919C24 17.6475 24 20.503 24 23.3583C23.9697 23.578 23.8711 23.748 23.7042 23.8683C23.5977 23.9448 23.4766 23.9888 23.3409 24C15.7784 24 8.21594 24 0.653437 24C0.429687 23.975 0.255781 23.8764 0.131719 23.7042C0.0551562 23.5977 0.01125 23.4766 0 23.3409C0 20.4853 0 17.6298 0 14.7745C0.010625 14.6055 0.06625 14.4667 0.166875 14.3583C0.289687 14.2264 0.429219 14.1225 0.585469 14.0466C0.599531 14.0397 0.613125 14.0319 0.62625 14.0231C1.81719 13.2356 3.02312 12.4402 4.24406 11.6367C4.25844 11.6273 4.26562 11.6139 4.26562 11.5964C4.26562 10.5373 4.26562 9.46531 4.26562 8.38031C4.26562 8.33656 4.24609 8.30484 4.20703 8.28516C3.92328 8.13859 3.66641 7.99312 3.43641 7.84875C2.97922 7.56125 2.575 7.21937 2.22375 6.82312C2.11469 6.69062 2.00922 6.54609 1.90734 6.38953C1.56516 5.86391 1.41766 5.29266 1.46484 4.67578C1.49734 4.28141 1.61938 3.91125 1.83094 3.56531C2.0675 3.15188 2.39953 2.77297 2.82703 2.42859C3.52109 1.88141 4.32391 1.44203 5.23547 1.11047C6.18641 0.766094 7.16687 0.504375 8.17688 0.325312C9.32563 0.121562 10.4945 0.0170313 11.6836 0.0117188C11.7317 0.0117188 11.7678 0.0078125 11.7919 0ZM3.47766 6.10828C3.70109 6.31953 3.94562 6.5125 4.21125 6.68719C4.24875 6.71125 4.26687 6.70094 4.26562 6.65625C4.25688 6.49125 4.26078 6.35063 4.27734 6.23438C4.30891 6.01156 4.41641 5.84469 4.59984 5.73375C4.61328 5.72563 4.62703 5.71812 4.64109 5.71125C5.51391 5.27938 6.42 4.82484 7.35938 4.34766C7.51875 4.26109 7.68281 4.21812 7.85156 4.21875C10.5822 4.22813 13.3127 4.22813 16.043 4.21875C16.283 4.22469 16.5105 4.28234 16.7255 4.39172C17.5511 4.81109 18.3723 5.22156 19.1892 5.62313C19.203 5.63031 19.2172 5.63672 19.2319 5.64234C19.4159 5.71453 19.5522 5.82984 19.6406 5.98828C19.7053 6.10422 19.7366 6.23313 19.7344 6.375C19.735 6.47656 19.735 6.57812 19.7344 6.67969C19.7344 6.705 19.745 6.71094 19.7663 6.6975C20.0241 6.5325 20.2605 6.35172 20.4755 6.15516C20.5911 6.04141 20.7005 5.92031 20.8036 5.79187C21.0289 5.51187 21.1403 5.215 21.1378 4.90125C21.1303 4.65406 21.0561 4.42359 20.9152 4.20984C20.7095 3.89328 20.4302 3.61016 20.077 3.36047C19.5817 3.01016 19.027 2.71719 18.413 2.48156C17.9123 2.2825 17.3958 2.11547 16.8633 1.98047C15.4808 1.63016 14.0316 1.44266 12.5156 1.41797C11.2159 1.39359 9.9425 1.47563 8.69531 1.66406C7.51781 1.84063 6.38594 2.15016 5.29969 2.59266C4.94719 2.73984 4.61719 2.90984 4.30969 3.10266C4.03406 3.26609 3.78203 3.45156 3.55359 3.65906C3.37703 3.82969 3.23453 3.99578 3.12609 4.15734C2.93672 4.43984 2.85125 4.73375 2.86969 5.03906C2.87063 5.05469 2.8725 5.07016 2.87531 5.08547C2.94031 5.44953 3.14109 5.79047 3.47766 6.10828ZM9.89062 5.65266C9.89062 5.64532 9.88771 5.63829 9.88252 5.6331C9.87734 5.62791 9.8703 5.625 9.86297 5.625H8.51203C8.5047 5.625 8.49766 5.62791 8.49248 5.6331C8.48729 5.63829 8.48438 5.64532 8.48438 5.65266V11.2692C8.48438 11.2766 8.48729 11.2836 8.49248 11.2888C8.49766 11.294 8.5047 11.2969 8.51203 11.2969H9.86297C9.8703 11.2969 9.87734 11.294 9.88252 11.2888C9.88771 11.2836 9.89062 11.2766 9.89062 11.2692V5.65266ZM12.7031 5.65266C12.7031 5.64532 12.7002 5.63829 12.695 5.6331C12.6898 5.62791 12.6828 5.625 12.6755 5.625H11.3245C11.3172 5.625 11.3102 5.62791 11.305 5.6331C11.2998 5.63829 11.2969 5.64532 11.2969 5.65266V11.2692C11.2969 11.2766 11.2998 11.2836 11.305 11.2888C11.3102 11.294 11.3172 11.2969 11.3245 11.2969H12.6755C12.6828 11.2969 12.6898 11.294 12.695 11.2888C12.7002 11.2836 12.7031 11.2766 12.7031 11.2692V5.65266ZM15.5156 5.65266C15.5156 5.64532 15.5127 5.63829 15.5075 5.6331C15.5023 5.62791 15.4953 5.625 15.488 5.625H14.137C14.1297 5.625 14.1227 5.62791 14.1175 5.6331C14.1123 5.63829 14.1094 5.64532 14.1094 5.65266V11.2692C14.1094 11.2766 14.1123 11.2836 14.1175 11.2888C14.1227 11.294 14.1297 11.2969 14.137 11.2969H15.488C15.4953 11.2969 15.5023 11.294 15.5075 11.2888C15.5127 11.2836 15.5156 11.2766 15.5156 11.2692V5.65266ZM7.03781 6.08016C6.585 6.30422 6.14047 6.52656 5.70422 6.74719C5.68266 6.75781 5.67188 6.77531 5.67188 6.79969C5.67188 8.27437 5.67188 9.76219 5.67188 11.2631C5.67188 11.2837 5.68219 11.2941 5.70281 11.2941C6.12813 11.2975 6.57531 11.2984 7.04437 11.2969C7.065 11.2966 7.07531 11.2863 7.07531 11.2659C7.07875 9.58125 7.07969 7.86109 7.07812 6.10547C7.07812 6.07547 7.06469 6.06703 7.03781 6.08016ZM18.2934 6.74578C17.8578 6.52547 17.4116 6.3025 16.9547 6.07687C16.9347 6.06687 16.9247 6.07297 16.9247 6.09516C16.9212 7.80578 16.9203 9.52797 16.9219 11.2617C16.9219 11.2852 16.9336 11.2969 16.957 11.2969C17.3945 11.2969 17.8398 11.2969 18.293 11.2969C18.3164 11.2969 18.3281 11.2852 18.3281 11.2617C18.3281 9.78516 18.3281 8.29859 18.3281 6.80203C18.3281 6.77641 18.3166 6.75766 18.2934 6.74578ZM12.0909 15.5653C12.7475 15.5841 13.3452 15.7677 13.8839 16.1161C14.178 16.3017 14.4445 16.5352 14.6836 16.8164C15.1483 17.3633 15.4178 17.9922 15.4922 18.7031C15.5225 18.99 15.5302 19.3345 15.5152 19.7367C15.5145 19.7664 15.5291 19.7812 15.5588 19.7812C16.4634 19.7812 17.3709 19.7812 18.2812 19.7812C18.3125 19.7812 18.3281 19.7656 18.3281 19.7344C18.3281 17.4062 18.3281 15.0781 18.3281 12.75C18.3281 12.7188 18.3125 12.7031 18.2812 12.7031C14.0938 12.7031 9.90625 12.7031 5.71875 12.7031C5.6875 12.7031 5.67188 12.7188 5.67188 12.75C5.67188 15.0625 5.67188 17.375 5.67188 19.6875C5.67188 19.75 5.70312 19.7812 5.76562 19.7812C6.64062 19.7812 7.51578 19.7812 8.39109 19.7812C8.45391 19.7812 8.485 19.7498 8.48438 19.687C8.47437 19.3689 8.47828 19.0839 8.49609 18.832C8.55641 17.9855 8.87969 17.258 9.46594 16.6495C9.73438 16.3661 10.04 16.1366 10.3828 15.9609C10.9184 15.68 11.4878 15.5481 12.0909 15.5653ZM1.41516 15.2119C1.40484 16.6959 1.40188 18.188 1.40625 19.688C1.40656 19.7502 1.43781 19.7812 1.5 19.7812C2.40625 19.7812 3.3125 19.7812 4.21875 19.7812C4.25 19.7812 4.26562 19.7656 4.26562 19.7344C4.26562 17.6094 4.26562 15.4844 4.26562 13.3594C4.26562 13.3209 4.24969 13.3123 4.21781 13.3336C3.29656 13.9458 2.37063 14.5566 1.44 15.1659C1.42344 15.1766 1.41516 15.1919 1.41516 15.2119ZM22.5689 15.1739C21.6352 14.5598 20.7019 13.9436 19.7691 13.3252C19.7459 13.3095 19.7344 13.3156 19.7344 13.3434C19.7344 15.4634 19.7344 17.5958 19.7344 19.7405C19.7344 19.7677 19.748 19.7812 19.7752 19.7812C20.7011 19.7812 21.627 19.7812 22.553 19.7812C22.5802 19.7812 22.5938 19.7677 22.5938 19.7405C22.5938 18.2208 22.5938 16.7139 22.5938 15.2198C22.5938 15.1998 22.5855 15.1845 22.5689 15.1739ZM13.3856 17.505C13.0363 17.1947 12.6173 17.0198 12.1289 16.9805C11.8383 16.958 11.5463 17.0019 11.2528 17.1122C10.8231 17.2741 10.4823 17.5505 10.2305 17.9414C10.083 18.1495 9.98625 18.3809 9.94031 18.6356C9.88375 18.9506 9.86719 19.3023 9.89062 19.6908C9.89281 19.7511 9.92406 19.7812 9.98438 19.7812C11.3281 19.7812 12.6719 19.7812 14.0156 19.7812C14.0763 19.7812 14.1075 19.7511 14.1094 19.6908C14.1344 19.317 14.1197 18.983 14.0653 18.6886C13.9769 18.2092 13.7503 17.8147 13.3856 17.505ZM6.10172 22.5689C6.53953 22.1442 6.98875 21.6986 7.44938 21.232C7.47656 21.2042 7.47078 21.1903 7.43203 21.1903C5.44172 21.1869 3.44672 21.1859 1.44703 21.1875C1.42016 21.1875 1.40656 21.2009 1.40625 21.2278C1.40469 21.6887 1.40562 22.1325 1.40906 22.5591C1.40937 22.5819 1.42094 22.5934 1.44375 22.5938C3.01969 22.5981 4.55891 22.5953 6.06141 22.5853C6.07703 22.585 6.09047 22.5795 6.10172 22.5689ZM8.24719 22.4269C8.20063 22.4744 8.16109 22.5095 8.12859 22.5323C8.08047 22.5733 8.08797 22.5938 8.15109 22.5938C10.7327 22.5938 13.3044 22.5938 15.8663 22.5938C15.91 22.5938 15.9164 22.5784 15.8855 22.5478C15.4417 22.1038 15.0031 21.6652 14.5697 21.232C14.5403 21.2023 14.5045 21.1875 14.4623 21.1875C12.8208 21.2019 11.1953 21.2019 9.58594 21.1875C9.50906 21.1894 9.44172 21.2197 9.38391 21.2784C9.00422 21.6625 8.62531 22.0453 8.24719 22.4269ZM16.5534 21.2348C17.0016 21.683 17.448 22.1294 17.8927 22.5741C17.9036 22.5853 17.9169 22.5909 17.9325 22.5909C19.4506 22.5944 20.9931 22.5953 22.56 22.5938C22.5806 22.5938 22.5909 22.5834 22.5909 22.5628C22.5944 22.1375 22.5953 21.6903 22.5938 21.2213C22.5934 21.2006 22.5831 21.1903 22.5628 21.1903C20.5637 21.1856 18.5667 21.1856 16.5717 21.1903C16.5298 21.1906 16.5238 21.2055 16.5534 21.2348Z" fill="#5D6078"></path>
  </g>
  <defs>
    <clipPath id="clip0_370_1226">
      <rect width="24" height="24" fill="white"></rect>
    </clipPath>
  </defs>
</svg>
