<svg width="20" height="20" viewBox="0 0 20 20" fill="none" xmlns="http://www.w3.org/2000/svg">
<path fill-rule="evenodd" clip-rule="evenodd" d="M8.98118 0.0412667C4.69873 0.493357 1.16923 3.63084 0.231022 7.8195C-0.0392055 9.02588 -0.0746362 10.4866 0.136696 11.7064C0.801354 15.5427 3.68305 18.6837 7.44007 19.6672C8.82632 20.03 10.3415 20.0986 11.7182 19.8609C15.6044 19.1899 18.7666 16.2572 19.719 12.4407C19.95 11.5151 20 11.0805 20 9.99917C20 8.91787 19.95 8.48324 19.719 7.55765C18.766 3.73905 15.5885 0.794777 11.7102 0.136857C10.9113 0.00134303 9.74607 -0.0394791 8.98118 0.0412667ZM14.4591 6.11935C14.6443 6.25666 14.6784 6.43479 14.6258 6.98966C14.5146 8.16358 13.6769 13.3616 13.4646 14.1958C13.3858 14.5055 13.2464 14.7714 13.0974 14.8967C12.9914 14.9858 12.9396 14.9994 12.7066 14.9994C12.4722 14.9994 12.4015 14.9806 12.1523 14.8517C11.9952 14.7704 11.7699 14.6332 11.6516 14.5467C11.5333 14.4602 10.8646 14.006 10.1655 13.5373C8.83993 12.6485 8.59137 12.4522 8.52074 12.2383C8.43033 11.9646 8.57451 11.7786 9.66625 10.7606C10.7098 9.78756 11.8672 8.65821 11.9496 8.53254C12.0326 8.40597 11.9632 8.28034 11.8102 8.28034C11.7275 8.28034 11.0933 8.68134 9.41624 9.79408C7.99002 10.7404 7.05412 11.3366 6.91967 11.3846C6.60952 11.4954 6.22447 11.4793 5.66055 11.332C5.12921 11.1933 4.25444 10.9145 4.08444 10.8298C3.76032 10.6682 3.6992 10.4533 3.91824 10.2454C4.0878 10.0844 4.08913 10.0838 6.3019 9.12515C10.7621 7.19272 12.966 6.28783 13.7394 6.07153C14.0041 5.99755 14.3234 6.01872 14.4591 6.11935Z" fill="#25A3E0"/>
</svg>
