<svg width="20" height="20" viewBox="0 0 20 20" fill="none" xmlns="http://www.w3.org/2000/svg">
<path fill-rule="evenodd" clip-rule="evenodd" d="M9.27542 0.0124509C7.7659 0.159568 6.62762 0.485783 5.39305 1.12496C4.48953 1.59278 3.78325 2.10489 3.02583 2.8415C0.37447 5.41986 -0.623577 9.16977 0.38745 12.7546C0.639063 13.6469 1.09186 14.6402 1.60693 15.4301L1.8985 15.8772L1.27642 17.7136C0.934306 18.7236 0.659705 19.5554 0.666273 19.5619C0.672802 19.5685 1.52847 19.3018 2.56776 18.9693C3.60709 18.6368 4.47132 18.3648 4.48832 18.3648C4.50533 18.3648 4.66577 18.4559 4.84486 18.5672C5.26885 18.8308 6.07545 19.2155 6.61699 19.4126C7.77282 19.8331 9.16154 20.0453 10.4092 19.9919C13.0092 19.8807 15.3627 18.8187 17.1956 16.9295C20.9348 13.0754 20.9348 6.92129 17.1956 3.0672C15.6213 1.44461 13.7189 0.457556 11.4843 0.103896C11.0168 0.0299267 9.66871 -0.0259021 9.27542 0.0124509ZM6.89108 4.65167C6.95582 4.68525 7.04652 4.78045 7.09269 4.86318C7.20923 5.0721 8.15966 7.36128 8.18734 7.49975C8.22276 7.6769 8.04953 7.97805 7.66093 8.41498C7.2554 8.87088 7.16826 9.01725 7.20434 9.18165C7.26991 9.47999 8.17405 10.6791 8.73111 11.2064C9.59553 12.0247 10.9021 12.8017 11.4843 12.8437C11.7831 12.8653 11.8929 12.7805 12.3453 12.1782C12.5501 11.9056 12.7687 11.6293 12.831 11.5642C12.9692 11.42 13.1613 11.378 13.3958 11.4407C13.6181 11.5002 15.7211 12.5145 15.8974 12.6474L16.0298 12.747L16.0079 13.1613C15.9497 14.2649 15.513 14.8709 14.4359 15.3425C13.6423 15.69 12.8127 15.663 11.6022 15.2501C10.122 14.7452 9.15298 14.2393 8.16122 13.4534C7.68771 13.0782 6.56307 11.9379 6.12232 11.3862C4.63391 9.52304 4.08486 8.26384 4.21274 7.00672C4.29781 6.1703 4.59008 5.55286 5.18037 4.9626C5.46592 4.677 5.83959 4.55944 6.40196 4.57821C6.64056 4.58614 6.81547 4.61242 6.89108 4.65167Z" fill="#67D449"/>
</svg>
