<svg width="17" height="17" viewBox="0 0 17 17" fill="none" xmlns="http://www.w3.org/2000/svg">
<path d="M9.10527 5.46377C9.10527 6.2682 8.78572 7.03968 8.2169 7.6085C7.64808 8.17732 6.8766 8.49687 6.07217 8.49687C5.26774 8.49687 4.49626 8.17732 3.92744 7.6085C3.35862 7.03968 3.03906 6.2682 3.03906 5.46377C3.03906 4.65934 3.35862 3.88786 3.92744 3.31904C4.49626 2.75022 5.26774 2.43066 6.07217 2.43066C6.8766 2.43066 7.64808 2.75022 8.2169 3.31904C8.78572 3.88786 9.10527 4.65934 9.10527 5.46377ZM8.04377 5.46477C8.04377 4.94195 7.83608 4.44055 7.4664 4.07087C7.09671 3.70118 6.59531 3.4935 6.0725 3.4935C5.54969 3.4935 5.04829 3.70118 4.6786 4.07087C4.30892 4.44055 4.10123 4.94195 4.10123 5.46477C4.10123 5.98758 4.30892 6.48898 4.6786 6.85866C5.04829 7.22835 5.54969 7.43604 6.0725 7.43604C6.59531 7.43604 7.09671 7.22835 7.4664 6.85866C7.83608 6.48898 8.04377 5.98758 8.04377 5.46477Z" fill="#00BBFC"/>
<path d="M14.7388 6.5076C14.7388 7.1057 14.5012 7.67931 14.0783 8.10223C13.6554 8.52516 13.0818 8.76275 12.4837 8.76275C11.8856 8.76275 11.312 8.52516 10.889 8.10223C10.4661 7.67931 10.2285 7.1057 10.2285 6.5076C10.2285 5.90949 10.4661 5.33588 10.889 4.91296C11.312 4.49004 11.8856 4.25244 12.4837 4.25244C13.0818 4.25244 13.6554 4.49004 14.0783 4.91296C14.5012 5.33588 14.7388 5.90949 14.7388 6.5076ZM13.6773 6.50793C13.6773 6.19144 13.5516 5.88792 13.3278 5.66412C13.104 5.44033 12.8005 5.31461 12.484 5.31461C12.1675 5.31461 11.864 5.44033 11.6402 5.66412C11.4164 5.88792 11.2907 6.19144 11.2907 6.50793C11.2907 6.82442 11.4164 7.12794 11.6402 7.35173C11.864 7.57553 12.1675 7.70125 12.484 7.70125C12.8005 7.70125 13.104 7.57553 13.3278 7.35173C13.5516 7.12794 13.6773 6.82442 13.6773 6.50793Z" fill="#00BBFC"/>
<path d="M5.91849 9.33842C6.74901 9.31695 7.53548 9.46847 8.2779 9.79298C8.75226 10.0002 9.19386 10.2711 9.60271 10.6058C9.61023 10.612 9.61742 10.6115 9.62429 10.6045C9.86202 10.3643 10.1154 10.1609 10.3843 9.99419C11.007 9.6015 11.6876 9.39952 12.4263 9.38823C13.2006 9.37583 13.9124 9.57162 14.5616 9.97559C14.8024 10.1254 15.0238 10.297 15.2257 10.4902C15.7272 10.971 16.0842 11.5493 16.2965 12.2251C16.4116 12.5912 16.469 12.982 16.4688 13.3975C16.4681 13.4984 16.437 13.5891 16.3755 13.6694C16.259 13.8268 16.0965 13.905 15.8877 13.9039C14.4463 13.8965 13.0026 13.8965 11.5567 13.9039C11.535 13.9039 11.5259 13.9145 11.5295 13.9357C11.5846 14.2359 11.6124 14.5545 11.6128 14.8916C11.613 15.0059 11.5764 15.1076 11.5029 15.1968C11.3947 15.3365 11.2515 15.4063 11.0733 15.4063C7.74189 15.4036 4.41051 15.4036 1.07913 15.4063C0.964691 15.4063 0.860211 15.3752 0.765693 15.313C0.610303 15.2107 0.532165 15.0703 0.531279 14.8916C0.528402 13.9744 0.738024 13.1159 1.16015 12.3164C1.33767 11.9802 1.54652 11.6633 1.78669 11.3658C2.04811 11.0468 2.34074 10.7612 2.66458 10.5088C3.08028 10.1883 3.53063 9.93033 4.01562 9.73487C4.61792 9.48828 5.25221 9.35613 5.91849 9.33842ZM9.10798 11.5859C8.66084 11.17 8.13789 10.8546 7.53913 10.6397C7.10993 10.4856 6.66102 10.4032 6.19241 10.3926C5.41657 10.3749 4.69373 10.5403 4.02392 10.8887C3.65935 11.0766 3.32311 11.3131 3.0152 11.5982C2.72191 11.8665 2.46669 12.1785 2.24954 12.5342C1.91375 13.0841 1.70656 13.6794 1.62798 14.3202C1.62599 14.3359 1.63285 14.3438 1.64856 14.3438C4.63817 14.3449 7.58927 14.3442 10.5018 14.3418C10.5116 14.3418 10.5158 14.337 10.5145 14.3275C10.4388 13.7728 10.2764 13.2581 10.0274 12.7832C9.78411 12.3288 9.47764 11.9297 9.10798 11.5859ZM14.4288 11.1958C14.2898 11.0703 14.1369 10.9575 13.9702 10.8575C13.5798 10.6231 13.1537 10.4902 12.6919 10.459C12.2406 10.4287 11.811 10.4972 11.4033 10.6646C11.0241 10.8168 10.6822 11.0482 10.3777 11.3585C10.3673 11.3693 10.3667 11.3806 10.376 11.3924C10.722 11.8293 11.0001 12.3066 11.2104 12.8241C11.2144 12.8343 11.2219 12.8394 11.233 12.8394C12.5784 12.8418 13.9473 12.8425 15.3399 12.8414C15.3509 12.8414 15.3554 12.8359 15.3532 12.8251C15.2394 12.2615 14.9921 11.7765 14.6114 11.3701C14.5437 11.3026 14.4828 11.2445 14.4288 11.1958Z" fill="#00BBFC"/>
</svg>
