<svg width="16" height="16" viewBox="0 0 16 16" fill="none" xmlns="http://www.w3.org/2000/svg">
<path d="M1.47656 2.00781C5.8151 2.00073 10.1536 2.00073 14.4922 2.00781C14.7495 2.00781 14.9858 2.06313 15.2013 2.17375C15.386 2.26354 15.5475 2.39636 15.6856 2.57219C15.8787 2.81844 15.9835 3.10229 16 3.42375C16 3.47334 16 3.52281 16 3.57219C15.9963 3.5724 15.9936 3.58219 15.9922 3.60157C15.9714 3.90844 15.8561 4.17865 15.6466 4.41219C15.5572 4.51157 15.4621 4.59354 15.3612 4.65813C13.1629 6.12709 10.9688 7.58969 8.77875 9.04594C8.77 9.05177 8.76115 9.0574 8.75219 9.06282C8.48802 9.22365 8.19563 9.29125 7.875 9.26563C7.62063 9.24521 7.38948 9.16386 7.18156 9.02157C5.05698 7.60427 2.93198 6.18761 0.806562 4.77157C0.704479 4.70344 0.606875 4.63438 0.51375 4.56438C0.321458 4.40875 0.182083 4.2174 0.095625 3.99032C0.05 3.87011 0.018125 3.73209 0 3.57625C0 3.52146 0 3.46677 0 3.41219C0.00395833 3.41219 0.0059375 3.41219 0.0059375 3.41219C0.0265625 3.01032 0.185417 2.67177 0.4825 2.39657C0.755417 2.13802 1.08677 2.00844 1.47656 2.00781Z" fill="#00BBFC"/>
<path d="M0.0528125 5.39252C2.24906 6.87793 4.46125 8.35325 6.68937 9.81845C7.03604 10.0503 7.41823 10.1786 7.83594 10.2031C8.38677 10.234 8.8926 10.0966 9.35344 9.79095C11.5607 8.32845 13.7639 6.8597 15.9628 5.3847C15.9778 5.3747 15.9902 5.3695 16 5.36908C16 7.77533 16 10.1816 16 12.5878C15.9965 12.5916 15.9939 12.6066 15.9922 12.6328C15.9751 12.9476 15.8585 13.2295 15.6425 13.4785C15.4046 13.7595 15.1039 13.9249 14.7403 13.9747C14.6107 13.9924 14.4629 13.9982 14.2969 13.9922C10.0833 13.9889 5.875 13.9889 1.67188 13.9922C1.66146 13.9922 1.65104 13.9925 1.64062 13.9931C1.24396 14.0154 0.895625 13.9181 0.595625 13.7013C0.477292 13.6156 0.375729 13.5141 0.290938 13.3966C0.115313 13.1585 0.0183333 12.8876 0 12.5841C0 10.1803 0 7.77668 0 5.37314C0.0127083 5.37106 0.0303125 5.37752 0.0528125 5.39252Z" fill="#00BBFC"/>
</svg>
