<svg width="16" height="16" viewBox="0 0 16 16" fill="none" xmlns="http://www.w3.org/2000/svg">
<path d="M3.10344 0C3.12698 0 3.15042 0 3.17375 0C3.17375 0.00458333 3.18354 0.0071875 3.20313 0.0078125C3.43125 0.0163542 3.64417 0.0690625 3.84188 0.165937C4.02896 0.257812 4.20469 0.384167 4.36906 0.545C5.09635 1.2575 5.8125 1.97625 6.5175 2.70125C6.76 2.95042 6.89219 3.24792 6.91406 3.59375C6.95094 4.00333 6.83833 4.36729 6.57625 4.68563C6.44417 4.84583 6.29177 4.96427 6.11906 5.04094C6.00427 5.09406 5.88708 5.14354 5.7675 5.18937C5.64104 5.24479 5.5226 5.32167 5.41219 5.42C5.18552 5.62292 5.0325 5.86052 4.95313 6.13281C4.88813 6.35573 4.88292 6.57969 4.9375 6.80469C4.99729 7.06385 5.08385 7.31063 5.19719 7.545C5.44823 8.05396 5.76531 8.52594 6.14844 8.96094C6.63344 9.50344 7.15229 9.96635 7.705 10.3497C8.14646 10.6557 8.59375 10.8751 9.04688 11.0078C9.24938 11.0647 9.4499 11.0751 9.64844 11.0391C9.9174 10.9968 10.1576 10.8958 10.3691 10.7362C10.5099 10.63 10.6271 10.5024 10.7206 10.3534C10.7865 10.2453 10.8411 10.1281 10.8847 10.0019C11.0061 9.68333 11.2119 9.43854 11.5019 9.2675C11.6904 9.15646 11.8955 9.09073 12.1172 9.07031C12.5566 9.03365 12.9374 9.15844 13.2597 9.44469C13.2676 9.45156 13.2752 9.45865 13.2825 9.46594C13.9471 10.1264 14.6153 10.792 15.2872 11.4628C15.4434 11.6189 15.5873 11.775 15.7188 11.9312C15.7252 11.9394 15.7313 11.9478 15.7369 11.9566C15.914 12.2301 15.9939 12.5336 15.9766 12.8672C15.9557 13.2682 15.8115 13.6166 15.5438 13.9122C15.5367 13.9199 15.5295 13.9275 15.5222 13.935C14.9995 14.4615 14.4744 14.9841 13.9469 15.5028C13.9394 15.5101 13.9316 15.517 13.9234 15.5234C13.7149 15.6924 13.4774 15.8148 13.2109 15.8906C12.9978 15.9513 12.755 15.9877 12.4825 16C12.4225 16 12.3626 16 12.3028 16C12.303 15.9946 12.2932 15.992 12.2734 15.9922C12.107 15.9876 11.9455 15.972 11.7891 15.9453C11.5491 15.9091 11.3277 15.8648 11.125 15.8125C10.741 15.7127 10.3615 15.5819 9.98625 15.42C9.33708 15.1485 8.69 14.806 8.045 14.3925C6.72958 13.5496 5.49781 12.5392 4.34969 11.3612C3.39448 10.3904 2.55333 9.36177 1.82625 8.27531C1.50646 7.79302 1.21604 7.29437 0.955 6.77938C0.735625 6.34792 0.546875 5.90646 0.38875 5.455C0.236458 5.01771 0.127083 4.575 0.060625 4.12687C0.00854171 3.7725 0.00656254 3.41771 0.0546875 3.0625C0.0919792 2.79729 0.173333 2.54792 0.29875 2.31437C0.396458 2.1425 0.521458 1.98104 0.67375 1.83C1.14 1.36771 1.6049 0.905521 2.06844 0.443437C2.19698 0.314896 2.33885 0.214583 2.49406 0.1425C2.6724 0.0597917 2.87552 0.0122917 3.10344 0Z" fill="#00BBFC"/>
</svg>
