<svg width="16" height="16" viewBox="0 0 16 16" fill="none" xmlns="http://www.w3.org/2000/svg">
<path fill-rule="evenodd" clip-rule="evenodd" d="M7.42034 0.00996068C6.21272 0.127654 5.3021 0.388626 4.31444 0.899967C3.59163 1.27422 3.0266 1.68392 2.42066 2.2732C0.299576 4.33589 -0.498861 7.33581 0.30996 10.2037C0.51125 10.9175 0.873486 11.7122 1.28554 12.3441L1.5188 12.7018L1.02114 14.1709C0.747445 14.9789 0.527764 15.6443 0.533018 15.6495C0.538241 15.6548 1.22277 15.4414 2.05421 15.1754C2.88567 14.9095 3.57705 14.6918 3.59066 14.6918C3.60426 14.6918 3.73262 14.7647 3.87589 14.8538C4.21508 15.0646 4.86036 15.3724 5.29359 15.5301C6.21826 15.8665 7.32923 16.0362 8.32733 15.9935C10.4074 15.9046 12.2901 15.0549 13.7565 13.5436C16.7479 10.4603 16.7479 5.53703 13.7565 2.45376C12.4971 1.15568 10.9751 0.366045 9.18742 0.0831166C8.81342 0.0239413 7.73497 -0.0207217 7.42034 0.00996068ZM5.51286 3.72133C5.56466 3.7482 5.63721 3.82436 5.67415 3.89054C5.76738 4.05768 6.52773 5.88902 6.54987 5.9998C6.57821 6.14152 6.43962 6.38244 6.12874 6.73199C5.80432 7.0967 5.73461 7.2138 5.76347 7.34532C5.81592 7.58399 6.53924 8.54328 6.98489 8.96514C7.67642 9.61976 8.72169 10.2414 9.18742 10.275C9.42649 10.2922 9.51431 10.2244 9.87623 9.74258C10.0401 9.52449 10.2149 9.30346 10.2648 9.25138C10.3753 9.13603 10.5291 9.10241 10.7166 9.15258C10.8945 9.20018 12.5769 10.0116 12.7179 10.1179L12.8238 10.1976L12.8063 10.529C12.7598 11.4119 12.4104 11.8967 11.5487 12.274C10.9138 12.552 10.2501 12.5304 9.28177 12.2001C8.09761 11.7962 7.32238 11.3914 6.52898 10.7627C6.15017 10.4625 5.25046 9.55035 4.89786 9.10898C3.70713 7.61843 3.26789 6.61107 3.37019 5.60537C3.43825 4.93624 3.67207 4.44229 4.1443 3.97008C4.37274 3.7416 4.67167 3.64755 5.12157 3.66257C5.31245 3.66892 5.45238 3.68993 5.51286 3.72133Z" fill="#67D449"/>
</svg>
