<svg width="22" height="22" viewBox="0 0 22 22" fill="none" xmlns="http://www.w3.org/2000/svg">
<path d="M14.8448 2.20206C14.9568 2.28284 15.0364 2.38941 15.0837 2.52175C15.4741 3.50201 15.8661 4.48127 16.2597 5.45952C16.2709 5.4876 16.2917 5.50135 16.322 5.50077C16.6071 5.49189 16.8594 5.52025 17.0791 5.58585C17.4429 5.697 17.75 5.88764 18.0004 6.15777C18.3232 6.49665 18.5067 6.90399 18.5508 7.3798C18.5706 7.59292 18.5743 7.83283 18.562 8.09952C18.5617 8.11385 18.5623 8.12817 18.5637 8.14249C18.5852 8.34301 18.5371 8.51761 18.4193 8.66628C18.2804 8.84159 18.1058 8.93197 17.8956 8.93741C17.7245 8.942 17.575 8.89101 17.447 8.78445C17.2745 8.64236 17.1877 8.46777 17.1866 8.26066C17.186 8.03149 17.186 7.80232 17.1866 7.57316C17.1871 7.39985 17.1307 7.2486 17.0173 7.11941C16.8815 6.9567 16.7123 6.8752 16.5098 6.87491C12.8431 6.87148 9.17648 6.87148 5.50981 6.87491C5.3345 6.8752 5.18325 6.82593 5.05606 6.7271C4.93346 6.63543 4.84924 6.50481 4.80341 6.33523C4.77591 6.23067 4.77949 6.12139 4.81415 6.00737C4.87717 5.80743 5.00593 5.66277 5.20044 5.57339C5.21333 5.56738 5.2265 5.56179 5.23997 5.55663C8.20481 4.42254 11.1737 3.27929 14.1465 2.12687C14.3989 2.0289 14.6316 2.05396 14.8448 2.20206ZM9.28247 5.49175C11.1106 5.50264 12.9384 5.5045 14.7657 5.49734C14.7852 5.49705 14.7913 5.48788 14.7842 5.46984C14.535 4.85338 14.2952 4.25167 14.0649 3.66472C14.0569 3.64409 14.0425 3.63779 14.0219 3.64581C12.4349 4.26313 10.8535 4.86956 9.27774 5.46511C9.23105 5.48258 9.23262 5.49146 9.28247 5.49175Z" fill="#00BBFC"/>
<path d="M5.47824 2.74998C5.93658 2.7474 6.39491 2.7474 6.85324 2.74998C7.01996 2.74826 7.17121 2.80111 7.30699 2.90854C7.43332 3.01281 7.51124 3.13541 7.54074 3.27635C7.59288 3.47057 7.55979 3.65232 7.44148 3.82162C7.3037 4.02186 7.11836 4.12298 6.88547 4.12498C6.43802 4.1287 5.99043 4.1287 5.5427 4.12498C5.17059 4.12183 4.82411 4.20863 4.50328 4.38537C4.21883 4.54235 3.98608 4.75361 3.80504 5.01916C3.55926 5.38038 3.43665 5.78415 3.43723 6.23045C3.44296 9.6393 3.44296 13.0482 3.43723 16.457C3.43665 16.8291 3.52345 17.1756 3.69762 17.4964C3.8523 17.7783 4.06357 18.011 4.33141 18.1947C4.69234 18.4404 5.09611 18.5631 5.5427 18.5625C9.14491 18.5585 12.74 18.5585 16.3279 18.5625C16.3422 18.5625 16.3565 18.5633 16.3708 18.5651C16.5639 18.5877 16.7349 18.5466 16.8839 18.4417C17.0861 18.2994 17.1872 18.1069 17.1872 17.8642C17.1872 17.1876 17.1872 16.5133 17.1872 15.8413C17.1872 15.8221 17.1776 15.8125 17.1584 15.8125C16.2501 15.8116 15.3538 15.8116 14.4695 15.8125C13.8808 15.8131 13.3481 15.6475 12.8714 15.3158C12.5985 15.1253 12.3711 14.8978 12.1895 14.6334C11.8604 14.1762 11.693 13.6669 11.6872 13.1054C11.6826 12.646 11.7829 12.2199 11.988 11.8271C12.1401 11.5252 12.3487 11.2539 12.6136 11.0133C13.1083 10.5744 13.6768 10.3411 14.3191 10.3133C14.3334 10.3128 14.3477 10.3125 14.362 10.3125C15.9983 10.3125 17.6347 10.3125 19.2712 10.3125C19.2855 10.3125 19.2999 10.3131 19.3142 10.3142C19.525 10.3328 19.6969 10.4397 19.8298 10.6347C19.9054 10.7459 19.9412 10.8676 19.9372 11C19.9344 12.3678 19.9344 13.7357 19.9372 15.1035C19.9375 15.2527 19.8973 15.3879 19.8165 15.5091C19.6761 15.7094 19.4908 15.8105 19.2605 15.8125C19.0155 15.8148 18.7908 15.8156 18.5863 15.8151C18.5697 15.8153 18.5614 15.8238 18.5614 15.8404C18.5671 16.6193 18.5639 17.3584 18.5519 18.0576C18.5516 18.0719 18.5506 18.0862 18.5489 18.1006C18.4962 18.5775 18.2957 18.9884 17.9473 19.3333C17.5515 19.7347 17.0689 19.936 16.4997 19.9375C12.8474 19.9424 9.19504 19.9424 5.5427 19.9375C4.97379 19.9366 4.44828 19.814 3.96617 19.5697C3.65078 19.4064 3.38051 19.2147 3.15535 18.9947C2.88866 18.7495 2.66307 18.4595 2.47859 18.1246C2.20216 17.6368 2.06337 17.1096 2.06223 16.5429C2.05478 13.145 2.05478 9.75403 2.06223 6.3701C2.06223 6.35577 2.06194 6.34145 2.06137 6.32713C2.04704 5.97965 2.08758 5.63318 2.18297 5.28771C2.33737 4.71938 2.62383 4.22166 3.04234 3.79455C3.28784 3.54447 3.55639 3.34037 3.84801 3.18225C4.35046 2.89722 4.89387 2.75313 5.47824 2.74998ZM13.5108 14.0641C13.7623 14.2955 14.064 14.4197 14.4157 14.4366C14.4301 14.4372 14.4444 14.4375 14.4587 14.4375C15.8154 14.4389 17.1762 14.4381 18.5412 14.4349C18.5552 14.4349 18.5622 14.4279 18.5622 14.4138C18.5637 13.492 18.5628 12.5903 18.5597 11.7085C18.5597 11.6945 18.5525 11.6875 18.5382 11.6875C17.1612 11.6878 15.8013 11.6878 14.4587 11.6875C14.2147 11.6846 13.9863 11.7428 13.7738 11.8619C13.5105 12.0097 13.3172 12.2174 13.1937 12.485C13.1307 12.6213 13.0904 12.7637 13.073 12.9121C13.0458 13.1438 13.0807 13.3739 13.1778 13.6022C13.264 13.7852 13.375 13.9392 13.5108 14.0641Z" fill="#00BBFC"/>
</svg>
