<svg width="22" height="22" viewBox="0 0 22 22" fill="none" xmlns="http://www.w3.org/2000/svg">
<path d="M18.0791 1.04238C18.5157 1.06644 18.9158 1.19979 19.2796 1.44242C19.481 1.57476 19.6582 1.73776 19.8112 1.9314C20.087 2.2806 20.2545 2.67806 20.3135 3.12379C20.3152 3.13811 20.3173 3.15229 20.3199 3.16633C20.8696 6.23057 21.4153 9.32174 21.957 12.4398C21.9782 12.5616 21.9926 12.6842 22 12.8077C22 12.8687 22 12.9295 22 12.9903C21.9722 13.422 21.8424 13.8177 21.6107 14.1775C21.4311 14.4562 21.2019 14.6854 20.9232 14.865C20.6525 15.0429 20.3597 15.1583 20.0449 15.2113C19.6831 15.2775 19.3293 15.3417 18.9836 15.4038C18.9696 15.4061 18.9625 15.4144 18.9625 15.4287C18.9554 16.3122 18.9545 17.2029 18.96 18.101C18.9614 18.3319 18.9578 18.5467 18.9492 18.7455C18.9303 19.0575 18.8524 19.3519 18.7155 19.6289C18.5722 19.9303 18.37 20.19 18.1087 20.408C17.6965 20.7514 17.2319 20.9346 16.7148 20.9575C16.7005 20.9581 16.6862 20.9584 16.6719 20.9584C11.8846 20.9584 7.09715 20.9584 2.30957 20.9584C2.29525 20.9584 2.28092 20.9581 2.2666 20.9575C1.89249 20.9412 1.53714 20.8385 1.20055 20.6495C0.911224 20.4873 0.665872 20.2708 0.464492 19.9998C0.181185 19.6153 0.0263542 19.1785 0 18.6892C0 15.4915 0 12.2939 0 9.09644C0.00544271 9.09644 0.00816406 9.09644 0.00816406 9.09644C0.0342318 8.5854 0.209687 8.12707 0.534531 7.72144C0.76599 7.43441 1.05302 7.21183 1.39562 7.05371C1.4088 7.04769 1.41424 7.03752 1.41195 7.0232C1.37471 6.79604 1.33375 6.54267 1.28906 6.26308C1.2501 6.01874 1.25454 5.77252 1.30238 5.52445C1.39033 5.06956 1.58727 4.67209 1.8932 4.33207C2.18883 4.00379 2.54604 3.78092 2.96484 3.66347C3.22352 3.59071 3.50023 3.53528 3.795 3.49719C3.80904 3.49518 3.82307 3.49303 3.83711 3.49074C8.3981 2.68264 12.9664 1.87726 17.542 1.07461C17.7285 1.04367 17.9075 1.03293 18.0791 1.04238ZM18.2699 7.54398C18.664 7.937 18.8869 8.40164 18.9385 8.93789C18.9548 9.14729 18.962 9.3693 18.96 9.6039C18.9485 11.0362 18.9485 12.4685 18.96 13.9008C18.9602 13.9627 18.9578 14.0118 18.9527 14.0482C18.9449 14.0791 18.9568 14.0917 18.9883 14.086C19.2656 14.0379 19.5382 13.9896 19.806 13.9412C19.9796 13.9122 20.1372 13.8442 20.2787 13.7371C20.5024 13.5669 20.6385 13.3485 20.6869 13.0818C20.7081 12.9328 20.7054 12.7833 20.6787 12.6332C20.1273 9.53172 19.5816 6.43696 19.0416 3.34894C19.039 3.33491 19.0369 3.32073 19.0352 3.3064C19.0122 3.0612 18.9147 2.84807 18.7425 2.66703C18.534 2.44789 18.2806 2.33603 17.9824 2.33144C17.8982 2.3323 17.7979 2.34305 17.6816 2.36367C12.9783 3.19526 8.28294 4.02384 3.59562 4.84941C3.58159 4.85199 3.56741 4.854 3.55309 4.85543C3.26176 4.88178 3.01827 5.00639 2.82262 5.22926C2.60749 5.47389 2.52241 5.75405 2.56738 6.06973C2.59947 6.30548 2.64172 6.55327 2.69414 6.81308C2.69729 6.83314 2.70904 6.84316 2.72938 6.84316C7.34794 6.83715 11.9704 6.83715 16.5967 6.84316C17.2501 6.84402 17.8078 7.07763 18.2699 7.54398ZM1.38316 8.79566C1.33819 8.88733 1.3104 8.98845 1.2998 9.09902C1.28262 9.27634 1.27918 9.48975 1.28949 9.73926C1.28978 9.76361 1.30224 9.77578 1.32687 9.77578C6.76214 9.77578 12.1938 9.77578 17.6219 9.77578C17.6543 9.77578 17.6695 9.75959 17.6675 9.72723C17.6543 9.58972 17.6518 9.44478 17.6602 9.29238C17.6802 8.92371 17.5504 8.62021 17.2709 8.38187C17.0669 8.21515 16.8207 8.13194 16.5322 8.13223C11.838 8.13652 7.1437 8.13652 2.44922 8.13223C2.21833 8.12334 2.01509 8.17075 1.83949 8.27445C1.6152 8.40737 1.46309 8.58111 1.38316 8.79566ZM17.6627 12.6719C17.6596 12.1625 17.6587 11.6365 17.6602 11.0936C17.6602 11.0744 17.6507 11.0648 17.6318 11.0648C12.2152 11.0648 6.78376 11.0648 1.33762 11.0648C1.30525 11.0648 1.28906 11.081 1.28906 11.1134C1.28906 11.6468 1.28906 12.1689 1.28906 12.6796C1.28906 12.6988 1.29866 12.7084 1.31785 12.7084C6.75569 12.7084 12.1918 12.7084 17.6262 12.7084C17.6508 12.7084 17.663 12.6962 17.6627 12.6719ZM1.69469 19.4248C1.88203 19.5876 2.10848 19.669 2.37402 19.6693C7.12923 19.6759 11.8773 19.6759 16.6182 19.6693C16.6325 19.6693 16.6468 19.6689 16.6611 19.668C16.9536 19.6494 17.2007 19.5245 17.4023 19.2934C17.5931 19.0745 17.6795 18.8239 17.6614 18.5414C17.6606 18.5271 17.6602 18.5128 17.6602 18.4984C17.6602 17.0375 17.6602 15.5416 17.6602 14.0108C17.6602 14.0036 17.6566 14 17.6494 14C12.2136 13.9969 6.77259 13.996 1.32645 13.9975C1.30152 13.9975 1.28906 14.0099 1.28906 14.0348C1.29193 15.4207 1.29193 16.8012 1.28906 18.1762C1.2819 18.3578 1.28548 18.5297 1.2998 18.6918C1.32616 18.9897 1.45779 19.2341 1.69469 19.4248Z" fill="#00BBFC"/>
<path d="M6.21801 17.0791H3.28668C2.93095 17.0791 2.64258 17.3675 2.64258 17.7232C2.64258 18.0789 2.93095 18.3673 3.28668 18.3673H6.21801C6.57374 18.3673 6.86211 18.0789 6.86211 17.7232C6.86211 17.3675 6.57374 17.0791 6.21801 17.0791Z" fill="#00BBFC"/>
</svg>
