<svg width="22" height="22" viewBox="0 0 22 22" fill="none" xmlns="http://www.w3.org/2000/svg">
<g clip-path="url(#clip0_100_661)">
<path d="M10.8092 0C10.9418 0 11.0743 0 11.2067 0C11.2115 0.00544271 11.2322 0.00902344 11.2686 0.0107422C11.8821 0.0388151 12.4621 0.183477 13.0084 0.444727C13.0212 0.450742 13.034 0.457044 13.0466 0.463633C15.3526 1.65902 17.6612 2.86072 19.9723 4.06871C20.5607 4.37608 21.0611 4.79589 21.4736 5.32812C21.7824 5.72745 21.9579 6.17232 22 6.66273C22 6.74523 22 6.82759 22 6.9098C21.9653 7.2822 21.8606 7.62065 21.6859 7.92516C21.5163 8.22021 21.2979 8.46728 21.0306 8.66637C20.5408 9.03131 19.9586 9.19574 19.2839 9.15965C19.263 9.15879 19.2526 9.16867 19.2526 9.1893C19.2483 11.6176 19.2483 14.0475 19.2526 16.4789C19.2526 16.493 19.2597 16.5 19.2741 16.5C19.5376 16.5072 19.7838 16.5072 20.0127 16.5C20.1734 16.4948 20.3166 16.5092 20.4424 16.543C20.693 16.6209 20.8757 16.7784 20.9902 17.0156C21.0985 17.2396 21.1128 17.4724 21.0332 17.7139C20.9811 17.8783 20.8835 18.0171 20.7406 18.1302C20.5489 18.2855 20.3206 18.3548 20.0557 18.3382C20.0413 18.3373 20.027 18.3369 20.0127 18.3369C14.0435 18.334 8.06724 18.334 2.08398 18.3369C1.97083 18.3369 1.85983 18.3333 1.75098 18.3262C1.5221 18.3041 1.32788 18.2083 1.16832 18.0387C0.991576 17.8482 0.910078 17.6182 0.923828 17.3486C0.931849 17.1894 0.982839 17.0398 1.0768 16.9C1.24352 16.6597 1.47182 16.5269 1.76172 16.5017C1.77604 16.5006 1.79036 16.5 1.80469 16.5C2.08742 16.5 2.39451 16.5 2.72594 16.5C2.74026 16.5 2.74742 16.493 2.74742 16.4789C2.75172 14.0472 2.75172 11.6183 2.74742 9.1923C2.74742 9.16967 2.73596 9.15879 2.71305 9.15965C1.93961 9.18944 1.29393 8.97073 0.776016 8.50351C0.765417 8.49378 0.754961 8.48389 0.744648 8.47387C0.300924 8.03788 0.0527083 7.51838 0 6.91539C0 6.81857 0 6.72189 0 6.62535C0.0360937 6.22316 0.158698 5.86323 0.367813 5.54555C0.558021 5.25107 0.787187 4.98251 1.05531 4.73988C1.40766 4.42134 1.79337 4.16482 2.21246 3.97031C2.22535 3.9643 2.2381 3.95785 2.2507 3.95098C4.49253 2.77764 6.7375 1.61161 8.98562 0.452891C8.99823 0.446302 9.01098 0.44 9.02387 0.433984C9.56642 0.181901 10.1615 0.0372396 10.8092 0ZM2.08141 7.19984C2.19857 7.29122 2.33908 7.33691 2.50293 7.33691C8.05306 7.33548 13.6032 7.33548 19.1533 7.33691C19.3412 7.3372 19.4979 7.33319 19.6234 7.32488C19.6377 7.32402 19.6519 7.32202 19.6659 7.31887C19.8687 7.27618 20.0193 7.1596 20.1175 6.9691C20.1946 6.8147 20.1767 6.65887 20.0638 6.5016C19.8533 6.20913 19.6015 5.97294 19.3084 5.79305C19.2964 5.7856 19.2839 5.77858 19.2711 5.77199C16.957 4.54624 14.619 3.32764 12.2568 2.11621C11.7707 1.86699 11.2443 1.77747 10.6777 1.84766C10.2466 1.89435 9.84013 2.03299 9.45828 2.26359C9.44596 2.27104 9.4335 2.27806 9.4209 2.28465C7.23637 3.42733 5.0557 4.56357 2.87891 5.69336C2.5131 5.88328 2.20516 6.14467 1.95508 6.47754C1.88719 6.55402 1.8478 6.6328 1.83691 6.71387C1.81171 6.90322 1.8932 7.06521 2.08141 7.19984ZM7.33691 9.18629C7.33691 9.18013 7.33447 9.17423 7.33012 9.16988C7.32577 9.16553 7.31987 9.16308 7.31371 9.16308H4.61012C4.60396 9.16308 4.59806 9.16553 4.59371 9.16988C4.58936 9.17423 4.58691 9.18013 4.58691 9.18629V16.4764C4.58691 16.4825 4.58936 16.4884 4.59371 16.4928C4.59806 16.4971 4.60396 16.4996 4.61012 16.4996H7.31371C7.31987 16.4996 7.32577 16.4971 7.33012 16.4928C7.33447 16.4884 7.33691 16.4825 7.33691 16.4764V9.18629ZM12.8369 9.19101C12.8369 9.18361 12.834 9.1765 12.8287 9.17127C12.8235 9.16603 12.8164 9.16308 12.809 9.16308H9.19102C9.18361 9.16308 9.1765 9.16603 9.17127 9.17127C9.16603 9.1765 9.16309 9.18361 9.16309 9.19101V16.4725C9.16309 16.4799 9.16603 16.487 9.17127 16.4922C9.1765 16.4975 9.18361 16.5004 9.19102 16.5004H12.809C12.8164 16.5004 12.8235 16.4975 12.8287 16.4922C12.834 16.487 12.8369 16.4799 12.8369 16.4725V9.19101ZM17.4131 9.19059C17.4131 9.18341 17.4102 9.17652 17.4052 9.17144C17.4001 9.16637 17.3932 9.16351 17.386 9.16351H14.6902C14.683 9.16351 14.6761 9.16637 14.671 9.17144C14.6659 9.17652 14.6631 9.18341 14.6631 9.19059V16.4729C14.6631 16.4801 14.6659 16.487 14.671 16.4921C14.6761 16.4971 14.683 16.5 14.6902 16.5H17.386C17.3932 16.5 17.4001 16.4971 17.4052 16.4921C17.4102 16.487 17.4131 16.4801 17.4131 16.4729V9.19059Z" fill="#00BBFC"/>
<path d="M0.999023 20.1632C7.67723 20.1632 14.3553 20.1632 21.0332 20.1632C21.2916 20.16 21.5092 20.2361 21.6859 20.3913C21.8672 20.5509 21.9719 20.7586 22 21.0144C22 21.0645 22 21.1147 22 21.1648C21.9805 21.3375 21.9224 21.4898 21.8255 21.6215C21.6605 21.8461 21.435 21.9723 21.1488 22.0001C14.3812 22.0001 7.61363 22.0001 0.846055 22.0001C0.640664 21.9772 0.466927 21.9047 0.324844 21.7827C0.134635 21.6188 0.0263542 21.4076 0 21.1489C0 21.1059 0 21.0629 0 21.02C0.0154688 20.9105 0.0378125 20.8192 0.0670312 20.7458C0.162422 20.5084 0.327135 20.3401 0.561172 20.241C0.69151 20.1891 0.837461 20.1632 0.999023 20.1632Z" fill="#00BBFC"/>
</g>
<defs>
<clipPath id="clip0_100_661">
<rect width="22" height="22" fill="white"/>
</clipPath>
</defs>
</svg>
