<svg width="31" height="31" viewBox="0 0 31 31" fill="none" xmlns="http://www.w3.org/2000/svg">
<path fill-rule="evenodd" clip-rule="evenodd" d="M30.8098 13.3787C29.4722 3.09516 18.1035 -2.94167 8.66182 1.61794C-3.93914 7.70299 -2.46291 26.1489 10.9526 30.2421C13.3434 30.9716 17.4233 31.0996 19.0077 30.4948C19.2378 30.4069 19.2756 29.8144 19.2756 26.3011C19.2756 22.4722 19.256 22.218 18.9693 22.3373C13.1985 24.7386 7.37231 20.8853 7.77654 14.935C8.26354 7.76671 17.8014 5.19059 21.7793 11.1529C23.083 13.107 23.1254 13.413 23.1254 20.8721C23.1254 28.1768 23.1548 28.4275 24.1491 29.5832C25.0557 30.637 25.6304 30.8123 28.5064 30.9128L31 31L30.9778 22.7499C30.9655 18.2124 30.8899 13.9952 30.8098 13.3787Z" fill="url(#paint0_linear_100_678)"/>
<path d="M8.37838 1.74773C18.0135 -3.26696 29.4722 3.09517 30.8098 13.3787C30.8899 13.9952 30.9655 18.2124 30.9778 22.7499L31 31L28.5064 30.9128C25.6304 30.8123 25.0557 30.637 24.1491 29.5832C23.1548 28.4275 23.1254 28.1768 23.1254 20.8721C23.1254 13.413 23.083 13.107 21.7793 11.1529C18.4324 6.3445 15.6355 4.38486 8.37838 1.74773Z" fill="white" fill-opacity="0.3"/>
<defs>
<linearGradient id="paint0_linear_100_678" x1="15.6914" y1="0.0761712" x2="15.6914" y2="31" gradientUnits="userSpaceOnUse">
<stop stop-color="#97CBF9"/>
<stop offset="0.554886" stop-color="#48A4F5"/>
</linearGradient>
</defs>
</svg>
