<svg width="27" height="27" viewBox="0 0 27 27" fill="none" xmlns="http://www.w3.org/2000/svg">
<path fill-rule="evenodd" clip-rule="evenodd" d="M12.1246 0.05571C6.34328 0.666032 1.57846 4.90163 0.311879 10.5563C-0.0529275 12.1849 -0.100759 14.1569 0.18454 15.8036C1.08183 20.9826 4.97211 25.223 10.0441 26.5507C11.9155 27.0406 13.961 27.1332 15.8195 26.8123C21.066 25.9064 25.3349 21.9472 26.6206 16.7949C26.9325 15.5454 27 14.9586 27 13.4989C27 12.0391 26.9325 11.4524 26.6206 10.2028C25.3341 5.04771 21.0445 1.07295 15.8088 0.184757C14.7302 0.00181309 13.1572 -0.0532968 12.1246 0.05571ZM19.5198 8.26112C19.7699 8.44649 19.8159 8.68697 19.7449 9.43604C19.5947 11.0208 18.4638 18.0382 18.1772 19.1643C18.0708 19.5824 17.8827 19.9414 17.6815 20.1105C17.5384 20.2308 17.4685 20.2492 17.1539 20.2492C16.8374 20.2492 16.7421 20.2238 16.4056 20.0498C16.1935 19.9401 15.8893 19.7548 15.7296 19.6381C15.5699 19.5213 14.6672 18.9081 13.7235 18.2753C11.9339 17.0754 11.5983 16.8104 11.503 16.5217C11.3809 16.1523 11.5756 15.9011 13.0494 14.5269C14.4583 13.2132 16.0207 11.6886 16.132 11.5189C16.2441 11.3481 16.1503 11.1785 15.9437 11.1785C15.8322 11.1785 14.976 11.7198 12.7119 13.222C10.7865 14.4995 9.52306 15.3044 9.34156 15.3692C8.92285 15.5187 8.40304 15.497 7.64175 15.2983C6.92444 15.1109 5.74349 14.7346 5.51399 14.6202C5.07643 14.4021 4.99392 14.112 5.28962 13.8313C5.51853 13.614 5.52033 13.6132 8.50757 12.3189C14.5288 9.71017 17.5042 8.48857 18.5482 8.19657C18.9055 8.09669 19.3365 8.12527 19.5198 8.26112Z" fill="#25A3E0"/>
</svg>
