<svg width="27" height="27" viewBox="0 0 27 27" fill="none" xmlns="http://www.w3.org/2000/svg">
<path fill-rule="evenodd" clip-rule="evenodd" d="M12.5218 0.0168087C10.484 0.215417 8.94729 0.655807 7.28062 1.51869C6.06087 2.15025 5.10739 2.84161 4.08487 3.83602C0.505535 7.31681 -0.841829 12.3792 0.523057 17.2187C0.862735 18.4233 1.47401 19.7643 2.16935 20.8307L2.56297 21.4343L1.72317 23.9134C1.26131 25.2769 0.890602 26.3998 0.899468 26.4086C0.908282 26.4174 2.06343 26.0574 3.46647 25.6086C4.86957 25.1597 6.03628 24.7925 6.05923 24.7925C6.08219 24.7925 6.29879 24.9155 6.54057 25.0657C7.11294 25.4215 8.20185 25.941 8.93293 26.207C10.4933 26.7747 12.3681 27.0611 14.0524 26.9891C17.5624 26.839 20.7396 25.4052 23.214 22.8548C28.262 17.6517 28.262 9.34375 23.214 4.14072C21.0888 1.95022 18.5205 0.6177 15.5038 0.140259C14.8726 0.040401 13.0528 -0.0349678 12.5218 0.0168087ZM9.30296 6.27975C9.39036 6.32509 9.5128 6.45361 9.57513 6.56529C9.73246 6.84734 11.0155 9.93772 11.0529 10.1247C11.1007 10.3638 10.8669 10.7704 10.3423 11.3602C9.79479 11.9757 9.67715 12.1733 9.72586 12.3952C9.81437 12.798 11.035 14.4168 11.787 15.1287C12.954 16.2333 14.7178 17.2823 15.5038 17.339C15.9072 17.3681 16.0554 17.2536 16.6661 16.4406C16.9426 16.0726 17.2377 15.6996 17.3219 15.6117C17.5084 15.4171 17.7678 15.3603 18.0843 15.445C18.3845 15.5253 21.2235 16.8946 21.4615 17.074L21.6402 17.2085L21.6107 17.7677C21.5321 19.2576 20.9426 20.0757 19.4885 20.7124C18.417 21.1816 17.2971 21.145 15.663 20.5877C13.6647 19.9061 12.3565 19.223 11.0177 18.1621C10.3784 17.6555 8.86015 16.1162 8.26513 15.3714C6.25578 12.8561 5.51457 11.1562 5.6872 9.45907C5.80205 8.32991 6.19661 7.49637 6.99351 6.69951C7.37899 6.31395 7.88344 6.15525 8.64265 6.18058C8.96476 6.19129 9.20088 6.22676 9.30296 6.27975Z" fill="#67D449"/>
</svg>
